<svg width="381" height="20" viewBox="0 0 381 20" fill="none" xmlns="http://www.w3.org/2000/svg">
<path fill-rule="evenodd" clip-rule="evenodd" d="M359 10.5C359 10.7761 358.776 11 358.5 11H20.5C20.2239 11 20 10.7761 20 10.5V10.5C20 10.2239 20.2239 10 20.5 10H358.5C358.776 10 359 10.2239 359 10.5V10.5Z" fill="#00CEC8"/>
<circle cx="20.5" cy="10" r="10" fill="#00CEC8"/>
<path d="M19.9088 9.704C19.9088 10.4 19.8568 11.02 19.7528 11.564C19.6488 12.108 19.4808 12.572 19.2488 12.956C19.0248 13.332 18.7288 13.62 18.3608 13.82C18.0008 14.02 17.5648 14.12 17.0528 14.12C16.4128 14.12 15.8808 13.944 15.4568 13.592C15.0408 13.24 14.7288 12.736 14.5208 12.08C14.3208 11.416 14.2208 10.624 14.2208 9.704C14.2208 8.776 14.3128 7.984 14.4968 7.328C14.6888 6.672 14.9928 6.172 15.4088 5.828C15.8248 5.476 16.3728 5.3 17.0528 5.3C17.6928 5.3 18.2248 5.476 18.6488 5.828C19.0728 6.172 19.3888 6.672 19.5968 7.328C19.8048 7.984 19.9088 8.776 19.9088 9.704ZM15.2768 9.704C15.2768 10.488 15.3328 11.14 15.4448 11.66C15.5648 12.18 15.7528 12.572 16.0088 12.836C16.2728 13.092 16.6208 13.22 17.0528 13.22C17.4848 13.22 17.8288 13.092 18.0848 12.836C18.3488 12.58 18.5408 12.192 18.6608 11.672C18.7808 11.144 18.8408 10.488 18.8408 9.704C18.8408 8.92 18.7808 8.272 18.6608 7.76C18.5408 7.24 18.3488 6.852 18.0848 6.596C17.8288 6.332 17.4848 6.2 17.0528 6.2C16.6208 6.2 16.2728 6.332 16.0088 6.596C15.7528 6.852 15.5648 7.24 15.4448 7.76C15.3328 8.272 15.2768 8.92 15.2768 9.704ZM24.76 14H23.728V8.012C23.728 7.78 23.728 7.584 23.728 7.424C23.736 7.264 23.744 7.116 23.752 6.98C23.76 6.836 23.768 6.688 23.776 6.536C23.648 6.664 23.532 6.772 23.428 6.86C23.324 6.948 23.192 7.06 23.032 7.196L22.12 7.94L21.568 7.232L23.884 5.432H24.76V14Z" fill="#FEFEFE"/>
<circle cx="88.5" cy="10" r="10" fill="#E6FAFA"/>
<path d="M87.9088 9.704C87.9088 10.4 87.8568 11.02 87.7528 11.564C87.6488 12.108 87.4808 12.572 87.2488 12.956C87.0248 13.332 86.7288 13.62 86.3608 13.82C86.0008 14.02 85.5648 14.12 85.0528 14.12C84.4128 14.12 83.8808 13.944 83.4568 13.592C83.0408 13.24 82.7288 12.736 82.5208 12.08C82.3208 11.416 82.2208 10.624 82.2208 9.704C82.2208 8.776 82.3128 7.984 82.4968 7.328C82.6888 6.672 82.9928 6.172 83.4088 5.828C83.8248 5.476 84.3728 5.3 85.0528 5.3C85.6928 5.3 86.2248 5.476 86.6488 5.828C87.0728 6.172 87.3888 6.672 87.5968 7.328C87.8048 7.984 87.9088 8.776 87.9088 9.704ZM83.2768 9.704C83.2768 10.488 83.3328 11.14 83.4448 11.66C83.5648 12.18 83.7528 12.572 84.0088 12.836C84.2728 13.092 84.6208 13.22 85.0528 13.22C85.4848 13.22 85.8288 13.092 86.0848 12.836C86.3488 12.58 86.5408 12.192 86.6608 11.672C86.7808 11.144 86.8408 10.488 86.8408 9.704C86.8408 8.92 86.7808 8.272 86.6608 7.76C86.5408 7.24 86.3488 6.852 86.0848 6.596C85.8288 6.332 85.4848 6.2 85.0528 6.2C84.6208 6.2 84.2728 6.332 84.0088 6.596C83.7528 6.852 83.5648 7.24 83.4448 7.76C83.3328 8.272 83.2768 8.92 83.2768 9.704ZM94.74 14H89.076V13.124L91.32 10.856C91.752 10.424 92.116 10.04 92.412 9.704C92.708 9.368 92.932 9.04 93.084 8.72C93.236 8.392 93.312 8.036 93.312 7.652C93.312 7.18 93.172 6.824 92.892 6.584C92.612 6.336 92.248 6.212 91.8 6.212C91.384 6.212 91.016 6.284 90.696 6.428C90.384 6.572 90.064 6.772 89.736 7.028L89.172 6.32C89.396 6.128 89.64 5.956 89.904 5.804C90.176 5.652 90.468 5.532 90.78 5.444C91.1 5.356 91.44 5.312 91.8 5.312C92.336 5.312 92.796 5.404 93.18 5.588C93.564 5.772 93.86 6.036 94.068 6.38C94.284 6.716 94.392 7.12 94.392 7.592C94.392 7.928 94.34 8.248 94.236 8.552C94.132 8.848 93.984 9.14 93.792 9.428C93.6 9.716 93.368 10.008 93.096 10.304C92.824 10.6 92.524 10.908 92.196 11.228L90.408 12.992V13.04H94.74V14Z" fill="#54DEDA"/>
<circle cx="156.5" cy="10" r="10" fill="#E6FAFA"/>
<path d="M155.909 9.704C155.909 10.4 155.857 11.02 155.753 11.564C155.649 12.108 155.481 12.572 155.249 12.956C155.025 13.332 154.729 13.62 154.361 13.82C154.001 14.02 153.565 14.12 153.053 14.12C152.413 14.12 151.881 13.944 151.457 13.592C151.041 13.24 150.729 12.736 150.521 12.08C150.321 11.416 150.221 10.624 150.221 9.704C150.221 8.776 150.313 7.984 150.497 7.328C150.689 6.672 150.993 6.172 151.409 5.828C151.825 5.476 152.373 5.3 153.053 5.3C153.693 5.3 154.225 5.476 154.649 5.828C155.073 6.172 155.389 6.672 155.597 7.328C155.805 7.984 155.909 8.776 155.909 9.704ZM151.277 9.704C151.277 10.488 151.333 11.14 151.445 11.66C151.565 12.18 151.753 12.572 152.009 12.836C152.273 13.092 152.621 13.22 153.053 13.22C153.485 13.22 153.829 13.092 154.085 12.836C154.349 12.58 154.541 12.192 154.661 11.672C154.781 11.144 154.841 10.488 154.841 9.704C154.841 8.92 154.781 8.272 154.661 7.76C154.541 7.24 154.349 6.852 154.085 6.596C153.829 6.332 153.485 6.2 153.053 6.2C152.621 6.2 152.273 6.332 152.009 6.596C151.753 6.852 151.565 7.24 151.445 7.76C151.333 8.272 151.277 8.92 151.277 9.704ZM162.416 7.436C162.416 7.82 162.344 8.152 162.2 8.432C162.056 8.712 161.848 8.94 161.576 9.116C161.312 9.292 161 9.416 160.64 9.488V9.536C161.328 9.616 161.84 9.832 162.176 10.184C162.512 10.536 162.68 10.996 162.68 11.564C162.68 12.06 162.564 12.504 162.332 12.896C162.1 13.28 161.74 13.58 161.252 13.796C160.772 14.012 160.152 14.12 159.392 14.12C158.944 14.12 158.528 14.084 158.144 14.012C157.76 13.948 157.392 13.828 157.04 13.652V12.668C157.4 12.844 157.788 12.984 158.204 13.088C158.62 13.184 159.02 13.232 159.404 13.232C160.172 13.232 160.724 13.084 161.06 12.788C161.404 12.484 161.576 12.068 161.576 11.54C161.576 11.18 161.48 10.892 161.288 10.676C161.104 10.452 160.832 10.288 160.472 10.184C160.112 10.08 159.68 10.028 159.176 10.028H158.348V9.128H159.188C159.66 9.128 160.052 9.06 160.364 8.924C160.684 8.788 160.924 8.6 161.084 8.36C161.252 8.112 161.336 7.828 161.336 7.508C161.336 7.092 161.196 6.772 160.916 6.548C160.636 6.316 160.256 6.2 159.776 6.2C159.472 6.2 159.196 6.232 158.948 6.296C158.7 6.352 158.468 6.436 158.252 6.548C158.044 6.652 157.832 6.776 157.616 6.92L157.088 6.2C157.296 6.04 157.532 5.892 157.796 5.756C158.068 5.62 158.368 5.512 158.696 5.432C159.024 5.352 159.38 5.312 159.764 5.312C160.66 5.312 161.324 5.512 161.756 5.912C162.196 6.312 162.416 6.82 162.416 7.436Z" fill="#8AE8E6"/>
<circle cx="224.5" cy="10" r="10" fill="#E6FAFA"/>
<path d="M223.909 9.704C223.909 10.4 223.857 11.02 223.753 11.564C223.649 12.108 223.481 12.572 223.249 12.956C223.025 13.332 222.729 13.62 222.361 13.82C222.001 14.02 221.565 14.12 221.053 14.12C220.413 14.12 219.881 13.944 219.457 13.592C219.041 13.24 218.729 12.736 218.521 12.08C218.321 11.416 218.221 10.624 218.221 9.704C218.221 8.776 218.313 7.984 218.497 7.328C218.689 6.672 218.993 6.172 219.409 5.828C219.825 5.476 220.373 5.3 221.053 5.3C221.693 5.3 222.225 5.476 222.649 5.828C223.073 6.172 223.389 6.672 223.597 7.328C223.805 7.984 223.909 8.776 223.909 9.704ZM219.277 9.704C219.277 10.488 219.333 11.14 219.445 11.66C219.565 12.18 219.753 12.572 220.009 12.836C220.273 13.092 220.621 13.22 221.053 13.22C221.485 13.22 221.829 13.092 222.085 12.836C222.349 12.58 222.541 12.192 222.661 11.672C222.781 11.144 222.841 10.488 222.841 9.704C222.841 8.92 222.781 8.272 222.661 7.76C222.541 7.24 222.349 6.852 222.085 6.596C221.829 6.332 221.485 6.2 221.053 6.2C220.621 6.2 220.273 6.332 220.009 6.596C219.753 6.852 219.565 7.24 219.445 7.76C219.333 8.272 219.277 8.92 219.277 9.704ZM231.124 12.056H229.876V14H228.856V12.056H224.752V11.156L228.784 5.384H229.876V11.108H231.124V12.056ZM228.856 8.408C228.856 8.2 228.856 8.012 228.856 7.844C228.864 7.668 228.872 7.504 228.88 7.352C228.888 7.2 228.892 7.056 228.892 6.92C228.9 6.776 228.908 6.64 228.916 6.512H228.868C228.804 6.664 228.724 6.828 228.628 7.004C228.532 7.18 228.44 7.328 228.352 7.448L225.784 11.108H228.856V8.408Z" fill="#8AE8E6"/>
<circle cx="292.5" cy="10" r="10" fill="#E6FAFA"/>
<path d="M291.909 9.704C291.909 10.4 291.857 11.02 291.753 11.564C291.649 12.108 291.481 12.572 291.249 12.956C291.025 13.332 290.729 13.62 290.361 13.82C290.001 14.02 289.565 14.12 289.053 14.12C288.413 14.12 287.881 13.944 287.457 13.592C287.041 13.24 286.729 12.736 286.521 12.08C286.321 11.416 286.221 10.624 286.221 9.704C286.221 8.776 286.313 7.984 286.497 7.328C286.689 6.672 286.993 6.172 287.409 5.828C287.825 5.476 288.373 5.3 289.053 5.3C289.693 5.3 290.225 5.476 290.649 5.828C291.073 6.172 291.389 6.672 291.597 7.328C291.805 7.984 291.909 8.776 291.909 9.704ZM287.277 9.704C287.277 10.488 287.333 11.14 287.445 11.66C287.565 12.18 287.753 12.572 288.009 12.836C288.273 13.092 288.621 13.22 289.053 13.22C289.485 13.22 289.829 13.092 290.085 12.836C290.349 12.58 290.541 12.192 290.661 11.672C290.781 11.144 290.841 10.488 290.841 9.704C290.841 8.92 290.781 8.272 290.661 7.76C290.541 7.24 290.349 6.852 290.085 6.596C289.829 6.332 289.485 6.2 289.053 6.2C288.621 6.2 288.273 6.332 288.009 6.596C287.753 6.852 287.565 7.24 287.445 7.76C287.333 8.272 287.277 8.92 287.277 9.704ZM295.8 8.744C296.384 8.744 296.892 8.844 297.324 9.044C297.756 9.244 298.088 9.532 298.32 9.908C298.56 10.276 298.68 10.728 298.68 11.264C298.68 11.856 298.552 12.368 298.296 12.8C298.04 13.224 297.672 13.552 297.192 13.784C296.72 14.008 296.148 14.12 295.476 14.12C295.036 14.12 294.62 14.08 294.228 14C293.844 13.92 293.52 13.804 293.256 13.652V12.656C293.544 12.832 293.892 12.972 294.3 13.076C294.716 13.172 295.112 13.22 295.488 13.22C295.912 13.22 296.28 13.156 296.592 13.028C296.912 12.892 297.16 12.688 297.336 12.416C297.512 12.136 297.6 11.788 297.6 11.372C297.6 10.812 297.428 10.384 297.084 10.088C296.74 9.784 296.196 9.632 295.452 9.632C295.228 9.632 294.972 9.652 294.684 9.692C294.396 9.732 294.164 9.772 293.988 9.812L293.46 9.476L293.784 5.432H298.08V6.392H294.684L294.48 8.876C294.616 8.852 294.8 8.824 295.032 8.792C295.264 8.76 295.52 8.744 295.8 8.744Z" fill="#8AE8E6"/>
<circle cx="360.5" cy="10" r="10" fill="#E6FAFA"/>
<path d="M359.909 9.704C359.909 10.4 359.857 11.02 359.753 11.564C359.649 12.108 359.481 12.572 359.249 12.956C359.025 13.332 358.729 13.62 358.361 13.82C358.001 14.02 357.565 14.12 357.053 14.12C356.413 14.12 355.881 13.944 355.457 13.592C355.041 13.24 354.729 12.736 354.521 12.08C354.321 11.416 354.221 10.624 354.221 9.704C354.221 8.776 354.313 7.984 354.497 7.328C354.689 6.672 354.993 6.172 355.409 5.828C355.825 5.476 356.373 5.3 357.053 5.3C357.693 5.3 358.225 5.476 358.649 5.828C359.073 6.172 359.389 6.672 359.597 7.328C359.805 7.984 359.909 8.776 359.909 9.704ZM355.277 9.704C355.277 10.488 355.333 11.14 355.445 11.66C355.565 12.18 355.753 12.572 356.009 12.836C356.273 13.092 356.621 13.22 357.053 13.22C357.485 13.22 357.829 13.092 358.085 12.836C358.349 12.58 358.541 12.192 358.661 11.672C358.781 11.144 358.841 10.488 358.841 9.704C358.841 8.92 358.781 8.272 358.661 7.76C358.541 7.24 358.349 6.852 358.085 6.596C357.829 6.332 357.485 6.2 357.053 6.2C356.621 6.2 356.273 6.332 356.009 6.596C355.753 6.852 355.565 7.24 355.445 7.76C355.333 8.272 355.277 8.92 355.277 9.704ZM361.16 10.34C361.16 9.844 361.192 9.356 361.256 8.876C361.328 8.396 361.448 7.944 361.616 7.52C361.784 7.088 362.016 6.708 362.312 6.38C362.608 6.044 362.98 5.784 363.428 5.6C363.884 5.408 364.436 5.312 365.084 5.312C365.252 5.312 365.436 5.32 365.636 5.336C365.844 5.352 366.012 5.38 366.14 5.42V6.32C365.996 6.272 365.832 6.236 365.648 6.212C365.472 6.188 365.292 6.176 365.108 6.176C364.556 6.176 364.096 6.268 363.728 6.452C363.36 6.636 363.068 6.888 362.852 7.208C362.644 7.528 362.492 7.896 362.396 8.312C362.3 8.728 362.24 9.172 362.216 9.644H362.288C362.408 9.452 362.56 9.28 362.744 9.128C362.928 8.976 363.148 8.856 363.404 8.768C363.668 8.68 363.972 8.636 364.316 8.636C364.812 8.636 365.244 8.74 365.612 8.948C365.988 9.148 366.28 9.444 366.488 9.836C366.696 10.22 366.8 10.688 366.8 11.24C366.8 11.832 366.688 12.344 366.464 12.776C366.24 13.208 365.924 13.54 365.516 13.772C365.116 14.004 364.636 14.12 364.076 14.12C363.668 14.12 363.288 14.044 362.936 13.892C362.584 13.74 362.272 13.508 362 13.196C361.736 12.884 361.528 12.492 361.376 12.02C361.232 11.54 361.16 10.98 361.16 10.34ZM364.064 13.232C364.568 13.232 364.976 13.072 365.288 12.752C365.6 12.424 365.756 11.92 365.756 11.24C365.756 10.696 365.616 10.264 365.336 9.944C365.064 9.624 364.652 9.464 364.1 9.464C363.724 9.464 363.396 9.544 363.116 9.704C362.836 9.856 362.616 10.052 362.456 10.292C362.304 10.532 362.228 10.78 362.228 11.036C362.228 11.3 362.264 11.56 362.336 11.816C362.416 12.072 362.532 12.308 362.684 12.524C362.844 12.74 363.036 12.912 363.26 13.04C363.492 13.168 363.76 13.232 364.064 13.232Z" fill="#8AE8E6"/>
</svg>
