<svg width="383" height="20" viewBox="0 0 383 20" fill="none" xmlns="http://www.w3.org/2000/svg">
<path fill-rule="evenodd" clip-rule="evenodd" d="M359 10.5C359 10.7761 358.776 11 358.5 11H20.5C20.2239 11 20 10.7761 20 10.5V10.5C20 10.2239 20.2239 10 20.5 10H358.5C358.776 10 359 10.2239 359 10.5V10.5Z" fill="#00CEC8"/>
<circle cx="21.5" cy="10" r="10" fill="#00CEC8"/>
<path d="M20.9088 9.704C20.9088 10.4 20.8568 11.02 20.7528 11.564C20.6488 12.108 20.4808 12.572 20.2488 12.956C20.0248 13.332 19.7288 13.62 19.3608 13.82C19.0008 14.02 18.5648 14.12 18.0528 14.12C17.4128 14.12 16.8808 13.944 16.4568 13.592C16.0408 13.24 15.7288 12.736 15.5208 12.08C15.3208 11.416 15.2208 10.624 15.2208 9.704C15.2208 8.776 15.3128 7.984 15.4968 7.328C15.6888 6.672 15.9928 6.172 16.4088 5.828C16.8248 5.476 17.3728 5.3 18.0528 5.3C18.6928 5.3 19.2248 5.476 19.6488 5.828C20.0728 6.172 20.3888 6.672 20.5968 7.328C20.8048 7.984 20.9088 8.776 20.9088 9.704ZM16.2768 9.704C16.2768 10.488 16.3328 11.14 16.4448 11.66C16.5648 12.18 16.7528 12.572 17.0088 12.836C17.2728 13.092 17.6208 13.22 18.0528 13.22C18.4848 13.22 18.8288 13.092 19.0848 12.836C19.3488 12.58 19.5408 12.192 19.6608 11.672C19.7808 11.144 19.8408 10.488 19.8408 9.704C19.8408 8.92 19.7808 8.272 19.6608 7.76C19.5408 7.24 19.3488 6.852 19.0848 6.596C18.8288 6.332 18.4848 6.2 18.0528 6.2C17.6208 6.2 17.2728 6.332 17.0088 6.596C16.7528 6.852 16.5648 7.24 16.4448 7.76C16.3328 8.272 16.2768 8.92 16.2768 9.704ZM25.76 14H24.728V8.012C24.728 7.78 24.728 7.584 24.728 7.424C24.736 7.264 24.744 7.116 24.752 6.98C24.76 6.836 24.768 6.688 24.776 6.536C24.648 6.664 24.532 6.772 24.428 6.86C24.324 6.948 24.192 7.06 24.032 7.196L23.12 7.94L22.568 7.232L24.884 5.432H25.76V14Z" fill="#FEFEFE"/>
<circle cx="89.5" cy="10" r="10" fill="#00CEC8"/>
<path d="M88.9088 9.704C88.9088 10.624 88.8128 11.416 88.6208 12.08C88.4288 12.736 88.1248 13.24 87.7088 13.592C87.2928 13.944 86.7408 14.12 86.0528 14.12C85.0848 14.12 84.3688 13.732 83.9048 12.956C83.4488 12.172 83.2208 11.088 83.2208 9.704C83.2208 8.776 83.3128 7.984 83.4968 7.328C83.6888 6.672 83.9928 6.172 84.4088 5.828C84.8248 5.476 85.3728 5.3 86.0528 5.3C87.0128 5.3 87.7288 5.688 88.2008 6.464C88.6728 7.232 88.9088 8.312 88.9088 9.704ZM84.2768 9.704C84.2768 10.88 84.4088 11.76 84.6728 12.344C84.9448 12.928 85.4048 13.22 86.0528 13.22C86.6928 13.22 87.1488 12.932 87.4208 12.356C87.7008 11.772 87.8408 10.888 87.8408 9.704C87.8408 8.536 87.7008 7.66 87.4208 7.076C87.1488 6.492 86.6928 6.2 86.0528 6.2C85.4048 6.2 84.9448 6.492 84.6728 7.076C84.4088 7.66 84.2768 8.536 84.2768 9.704ZM95.74 14H90.076V13.124L92.32 10.856C92.752 10.424 93.116 10.04 93.412 9.704C93.708 9.368 93.932 9.04 94.084 8.72C94.236 8.392 94.312 8.036 94.312 7.652C94.312 7.18 94.172 6.824 93.892 6.584C93.612 6.336 93.248 6.212 92.8 6.212C92.384 6.212 92.016 6.284 91.696 6.428C91.384 6.572 91.064 6.772 90.736 7.028L90.172 6.32C90.508 6.04 90.892 5.804 91.324 5.612C91.764 5.412 92.256 5.312 92.8 5.312C93.6 5.312 94.232 5.516 94.696 5.924C95.16 6.324 95.392 6.88 95.392 7.592C95.392 8.04 95.3 8.46 95.116 8.852C94.932 9.244 94.676 9.632 94.348 10.016C94.02 10.392 93.636 10.796 93.196 11.228L91.408 12.992V13.04H95.74V14Z" fill="#E6FAFA"/>
<circle cx="157.5" cy="10" r="10" fill="#00CEC8"/>
<path d="M156.909 9.704C156.909 10.624 156.813 11.416 156.621 12.08C156.429 12.736 156.125 13.24 155.709 13.592C155.293 13.944 154.741 14.12 154.053 14.12C153.085 14.12 152.369 13.732 151.905 12.956C151.449 12.172 151.221 11.088 151.221 9.704C151.221 8.776 151.313 7.984 151.497 7.328C151.689 6.672 151.993 6.172 152.409 5.828C152.825 5.476 153.373 5.3 154.053 5.3C155.013 5.3 155.729 5.688 156.201 6.464C156.673 7.232 156.909 8.312 156.909 9.704ZM152.277 9.704C152.277 10.88 152.409 11.76 152.673 12.344C152.945 12.928 153.405 13.22 154.053 13.22C154.693 13.22 155.149 12.932 155.421 12.356C155.701 11.772 155.841 10.888 155.841 9.704C155.841 8.536 155.701 7.66 155.421 7.076C155.149 6.492 154.693 6.2 154.053 6.2C153.405 6.2 152.945 6.492 152.673 7.076C152.409 7.66 152.277 8.536 152.277 9.704ZM163.416 7.436C163.416 8.012 163.256 8.472 162.936 8.816C162.616 9.152 162.184 9.376 161.64 9.488V9.536C162.328 9.616 162.84 9.832 163.176 10.184C163.512 10.536 163.68 10.996 163.68 11.564C163.68 12.06 163.564 12.504 163.332 12.896C163.1 13.28 162.74 13.58 162.252 13.796C161.772 14.012 161.152 14.12 160.392 14.12C159.944 14.12 159.528 14.084 159.144 14.012C158.76 13.948 158.392 13.828 158.04 13.652V12.668C158.4 12.844 158.788 12.984 159.204 13.088C159.62 13.184 160.02 13.232 160.404 13.232C161.172 13.232 161.724 13.084 162.06 12.788C162.404 12.484 162.576 12.068 162.576 11.54C162.576 11.004 162.364 10.62 161.94 10.388C161.524 10.148 160.936 10.028 160.176 10.028H159.348V9.128H160.188C160.892 9.128 161.424 8.98 161.784 8.684C162.152 8.388 162.336 7.996 162.336 7.508C162.336 7.092 162.196 6.772 161.916 6.548C161.636 6.316 161.256 6.2 160.776 6.2C160.312 6.2 159.916 6.268 159.588 6.404C159.26 6.54 158.936 6.712 158.616 6.92L158.088 6.2C158.392 5.96 158.768 5.752 159.216 5.576C159.672 5.4 160.188 5.312 160.764 5.312C161.66 5.312 162.324 5.512 162.756 5.912C163.196 6.312 163.416 6.82 163.416 7.436Z" fill="#E6FAFA"/>
<circle cx="225.5" cy="10" r="10" fill="#33D8D3"/>
<path d="M224.909 9.704C224.909 10.624 224.813 11.416 224.621 12.08C224.429 12.736 224.125 13.24 223.709 13.592C223.293 13.944 222.741 14.12 222.053 14.12C221.085 14.12 220.369 13.732 219.905 12.956C219.449 12.172 219.221 11.088 219.221 9.704C219.221 8.776 219.313 7.984 219.497 7.328C219.689 6.672 219.993 6.172 220.409 5.828C220.825 5.476 221.373 5.3 222.053 5.3C223.013 5.3 223.729 5.688 224.201 6.464C224.673 7.232 224.909 8.312 224.909 9.704ZM220.277 9.704C220.277 10.88 220.409 11.76 220.673 12.344C220.945 12.928 221.405 13.22 222.053 13.22C222.693 13.22 223.149 12.932 223.421 12.356C223.701 11.772 223.841 10.888 223.841 9.704C223.841 8.536 223.701 7.66 223.421 7.076C223.149 6.492 222.693 6.2 222.053 6.2C221.405 6.2 220.945 6.492 220.673 7.076C220.409 7.66 220.277 8.536 220.277 9.704ZM232.124 12.056H230.876V14H229.856V12.056H225.752V11.156L229.784 5.384H230.876V11.108H232.124V12.056ZM229.856 8.408C229.856 7.992 229.864 7.64 229.88 7.352C229.896 7.056 229.908 6.776 229.916 6.512H229.868C229.804 6.664 229.724 6.828 229.628 7.004C229.532 7.18 229.44 7.328 229.352 7.448L226.784 11.108H229.856V8.408Z" fill="#E6FAFA"/>
<circle cx="293.5" cy="10" r="10" fill="#E6FAFA"/>
<path d="M292.909 9.704C292.909 10.624 292.813 11.416 292.621 12.08C292.429 12.736 292.125 13.24 291.709 13.592C291.293 13.944 290.741 14.12 290.053 14.12C289.085 14.12 288.369 13.732 287.905 12.956C287.449 12.172 287.221 11.088 287.221 9.704C287.221 8.776 287.313 7.984 287.497 7.328C287.689 6.672 287.993 6.172 288.409 5.828C288.825 5.476 289.373 5.3 290.053 5.3C291.013 5.3 291.729 5.688 292.201 6.464C292.673 7.232 292.909 8.312 292.909 9.704ZM288.277 9.704C288.277 10.88 288.409 11.76 288.673 12.344C288.945 12.928 289.405 13.22 290.053 13.22C290.693 13.22 291.149 12.932 291.421 12.356C291.701 11.772 291.841 10.888 291.841 9.704C291.841 8.536 291.701 7.66 291.421 7.076C291.149 6.492 290.693 6.2 290.053 6.2C289.405 6.2 288.945 6.492 288.673 7.076C288.409 7.66 288.277 8.536 288.277 9.704ZM296.8 8.744C297.68 8.744 298.38 8.964 298.9 9.404C299.42 9.844 299.68 10.464 299.68 11.264C299.68 12.152 299.396 12.852 298.828 13.364C298.268 13.868 297.484 14.12 296.476 14.12C296.036 14.12 295.62 14.08 295.228 14C294.844 13.92 294.52 13.804 294.256 13.652V12.656C294.544 12.832 294.892 12.972 295.3 13.076C295.716 13.172 296.112 13.22 296.488 13.22C297.12 13.22 297.628 13.072 298.012 12.776C298.404 12.472 298.6 12.004 298.6 11.372C298.6 10.812 298.428 10.384 298.084 10.088C297.74 9.784 297.196 9.632 296.452 9.632C296.228 9.632 295.972 9.652 295.684 9.692C295.396 9.732 295.164 9.772 294.988 9.812L294.46 9.476L294.784 5.432H299.08V6.392H295.684L295.48 8.876C295.616 8.852 295.8 8.824 296.032 8.792C296.264 8.76 296.52 8.744 296.8 8.744Z" fill="#8AE8E6"/>
<circle cx="361.5" cy="10" r="10" fill="#E6FAFA"/>
<path d="M360.909 9.704C360.909 10.4 360.857 11.02 360.753 11.564C360.649 12.108 360.481 12.572 360.249 12.956C360.025 13.332 359.729 13.62 359.361 13.82C359.001 14.02 358.565 14.12 358.053 14.12C357.413 14.12 356.881 13.944 356.457 13.592C356.041 13.24 355.729 12.736 355.521 12.08C355.321 11.416 355.221 10.624 355.221 9.704C355.221 8.776 355.313 7.984 355.497 7.328C355.689 6.672 355.993 6.172 356.409 5.828C356.825 5.476 357.373 5.3 358.053 5.3C358.693 5.3 359.225 5.476 359.649 5.828C360.073 6.172 360.389 6.672 360.597 7.328C360.805 7.984 360.909 8.776 360.909 9.704ZM356.277 9.704C356.277 10.488 356.333 11.14 356.445 11.66C356.565 12.18 356.753 12.572 357.009 12.836C357.273 13.092 357.621 13.22 358.053 13.22C358.485 13.22 358.829 13.092 359.085 12.836C359.349 12.58 359.541 12.192 359.661 11.672C359.781 11.144 359.841 10.488 359.841 9.704C359.841 8.92 359.781 8.272 359.661 7.76C359.541 7.24 359.349 6.852 359.085 6.596C358.829 6.332 358.485 6.2 358.053 6.2C357.621 6.2 357.273 6.332 357.009 6.596C356.753 6.852 356.565 7.24 356.445 7.76C356.333 8.272 356.277 8.92 356.277 9.704ZM362.16 10.34C362.16 9.844 362.192 9.356 362.256 8.876C362.328 8.396 362.448 7.944 362.616 7.52C362.784 7.088 363.016 6.708 363.312 6.38C363.608 6.044 363.98 5.784 364.428 5.6C364.884 5.408 365.436 5.312 366.084 5.312C366.252 5.312 366.436 5.32 366.636 5.336C366.844 5.352 367.012 5.38 367.14 5.42V6.32C366.996 6.272 366.832 6.236 366.648 6.212C366.472 6.188 366.292 6.176 366.108 6.176C365.556 6.176 365.096 6.268 364.728 6.452C364.36 6.636 364.068 6.888 363.852 7.208C363.644 7.528 363.492 7.896 363.396 8.312C363.3 8.728 363.24 9.172 363.216 9.644H363.288C363.408 9.452 363.56 9.28 363.744 9.128C363.928 8.976 364.148 8.856 364.404 8.768C364.668 8.68 364.972 8.636 365.316 8.636C365.812 8.636 366.244 8.74 366.612 8.948C366.988 9.148 367.28 9.444 367.488 9.836C367.696 10.22 367.8 10.688 367.8 11.24C367.8 11.832 367.688 12.344 367.464 12.776C367.24 13.208 366.924 13.54 366.516 13.772C366.116 14.004 365.636 14.12 365.076 14.12C364.668 14.12 364.288 14.044 363.936 13.892C363.584 13.74 363.272 13.508 363 13.196C362.736 12.884 362.528 12.492 362.376 12.02C362.232 11.54 362.16 10.98 362.16 10.34ZM365.064 13.232C365.568 13.232 365.976 13.072 366.288 12.752C366.6 12.424 366.756 11.92 366.756 11.24C366.756 10.696 366.616 10.264 366.336 9.944C366.064 9.624 365.652 9.464 365.1 9.464C364.724 9.464 364.396 9.544 364.116 9.704C363.836 9.856 363.616 10.052 363.456 10.292C363.304 10.532 363.228 10.78 363.228 11.036C363.228 11.3 363.264 11.56 363.336 11.816C363.416 12.072 363.532 12.308 363.684 12.524C363.844 12.74 364.036 12.912 364.26 13.04C364.492 13.168 364.76 13.232 365.064 13.232Z" fill="#8AE8E6"/>
</svg>
