<svg width="383" height="20" viewBox="0 0 383 20" fill="none" xmlns="http://www.w3.org/2000/svg">
<path fill-rule="evenodd" clip-rule="evenodd" d="M359 10.5C359 10.7761 358.776 11 358.5 11H20.5C20.2239 11 20 10.7761 20 10.5V10.5C20 10.2239 20.2239 10 20.5 10H358.5C358.776 10 359 10.2239 359 10.5V10.5Z" fill="#00CEC8"/>
<circle cx="21.5" cy="10" r="10" fill="#00CEC8"/>
<path d="M20.9088 9.704C20.9088 10.4 20.8568 11.02 20.7528 11.564C20.6488 12.108 20.4808 12.572 20.2488 12.956C20.0248 13.332 19.7288 13.62 19.3608 13.82C19.0008 14.02 18.5648 14.12 18.0528 14.12C17.4128 14.12 16.8808 13.944 16.4568 13.592C16.0408 13.24 15.7288 12.736 15.5208 12.08C15.3208 11.416 15.2208 10.624 15.2208 9.704C15.2208 8.776 15.3128 7.984 15.4968 7.328C15.6888 6.672 15.9928 6.172 16.4088 5.828C16.8248 5.476 17.3728 5.3 18.0528 5.3C18.6928 5.3 19.2248 5.476 19.6488 5.828C20.0728 6.172 20.3888 6.672 20.5968 7.328C20.8048 7.984 20.9088 8.776 20.9088 9.704ZM16.2768 9.704C16.2768 10.488 16.3328 11.14 16.4448 11.66C16.5648 12.18 16.7528 12.572 17.0088 12.836C17.2728 13.092 17.6208 13.22 18.0528 13.22C18.4848 13.22 18.8288 13.092 19.0848 12.836C19.3488 12.58 19.5408 12.192 19.6608 11.672C19.7808 11.144 19.8408 10.488 19.8408 9.704C19.8408 8.92 19.7808 8.272 19.6608 7.76C19.5408 7.24 19.3488 6.852 19.0848 6.596C18.8288 6.332 18.4848 6.2 18.0528 6.2C17.6208 6.2 17.2728 6.332 17.0088 6.596C16.7528 6.852 16.5648 7.24 16.4448 7.76C16.3328 8.272 16.2768 8.92 16.2768 9.704ZM25.76 14H24.728V8.012C24.728 7.78 24.728 7.584 24.728 7.424C24.736 7.264 24.744 7.116 24.752 6.98C24.76 6.836 24.768 6.688 24.776 6.536C24.648 6.664 24.532 6.772 24.428 6.86C24.324 6.948 24.192 7.06 24.032 7.196L23.12 7.94L22.568 7.232L24.884 5.432H25.76V14Z" fill="#FEFEFE"/>
<circle cx="89.5" cy="10" r="10" fill="#00CEC8"/>
<path d="M88.9088 9.704C88.9088 10.4 88.8568 11.02 88.7528 11.564C88.6488 12.108 88.4808 12.572 88.2488 12.956C88.0248 13.332 87.7288 13.62 87.3608 13.82C87.0008 14.02 86.5648 14.12 86.0528 14.12C85.4128 14.12 84.8808 13.944 84.4568 13.592C84.0408 13.24 83.7288 12.736 83.5208 12.08C83.3208 11.416 83.2208 10.624 83.2208 9.704C83.2208 8.776 83.3128 7.984 83.4968 7.328C83.6888 6.672 83.9928 6.172 84.4088 5.828C84.8248 5.476 85.3728 5.3 86.0528 5.3C86.6928 5.3 87.2248 5.476 87.6488 5.828C88.0728 6.172 88.3888 6.672 88.5968 7.328C88.8048 7.984 88.9088 8.776 88.9088 9.704ZM84.2768 9.704C84.2768 10.488 84.3328 11.14 84.4448 11.66C84.5648 12.18 84.7528 12.572 85.0088 12.836C85.2728 13.092 85.6208 13.22 86.0528 13.22C86.4848 13.22 86.8288 13.092 87.0848 12.836C87.3488 12.58 87.5408 12.192 87.6608 11.672C87.7808 11.144 87.8408 10.488 87.8408 9.704C87.8408 8.92 87.7808 8.272 87.6608 7.76C87.5408 7.24 87.3488 6.852 87.0848 6.596C86.8288 6.332 86.4848 6.2 86.0528 6.2C85.6208 6.2 85.2728 6.332 85.0088 6.596C84.7528 6.852 84.5648 7.24 84.4448 7.76C84.3328 8.272 84.2768 8.92 84.2768 9.704ZM95.74 14H90.076V13.124L92.32 10.856C92.752 10.424 93.116 10.04 93.412 9.704C93.708 9.368 93.932 9.04 94.084 8.72C94.236 8.392 94.312 8.036 94.312 7.652C94.312 7.18 94.172 6.824 93.892 6.584C93.612 6.336 93.248 6.212 92.8 6.212C92.384 6.212 92.016 6.284 91.696 6.428C91.384 6.572 91.064 6.772 90.736 7.028L90.172 6.32C90.396 6.128 90.64 5.956 90.904 5.804C91.176 5.652 91.468 5.532 91.78 5.444C92.1 5.356 92.44 5.312 92.8 5.312C93.336 5.312 93.796 5.404 94.18 5.588C94.564 5.772 94.86 6.036 95.068 6.38C95.284 6.716 95.392 7.12 95.392 7.592C95.392 7.928 95.34 8.248 95.236 8.552C95.132 8.848 94.984 9.14 94.792 9.428C94.6 9.716 94.368 10.008 94.096 10.304C93.824 10.6 93.524 10.908 93.196 11.228L91.408 12.992V13.04H95.74V14Z" fill="#E6FAFA"/>
<circle cx="157.5" cy="10" r="10" fill="#00CEC8"/>
<path d="M156.909 9.704C156.909 10.4 156.857 11.02 156.753 11.564C156.649 12.108 156.481 12.572 156.249 12.956C156.025 13.332 155.729 13.62 155.361 13.82C155.001 14.02 154.565 14.12 154.053 14.12C153.413 14.12 152.881 13.944 152.457 13.592C152.041 13.24 151.729 12.736 151.521 12.08C151.321 11.416 151.221 10.624 151.221 9.704C151.221 8.776 151.313 7.984 151.497 7.328C151.689 6.672 151.993 6.172 152.409 5.828C152.825 5.476 153.373 5.3 154.053 5.3C154.693 5.3 155.225 5.476 155.649 5.828C156.073 6.172 156.389 6.672 156.597 7.328C156.805 7.984 156.909 8.776 156.909 9.704ZM152.277 9.704C152.277 10.488 152.333 11.14 152.445 11.66C152.565 12.18 152.753 12.572 153.009 12.836C153.273 13.092 153.621 13.22 154.053 13.22C154.485 13.22 154.829 13.092 155.085 12.836C155.349 12.58 155.541 12.192 155.661 11.672C155.781 11.144 155.841 10.488 155.841 9.704C155.841 8.92 155.781 8.272 155.661 7.76C155.541 7.24 155.349 6.852 155.085 6.596C154.829 6.332 154.485 6.2 154.053 6.2C153.621 6.2 153.273 6.332 153.009 6.596C152.753 6.852 152.565 7.24 152.445 7.76C152.333 8.272 152.277 8.92 152.277 9.704ZM163.416 7.436C163.416 7.82 163.344 8.152 163.2 8.432C163.056 8.712 162.848 8.94 162.576 9.116C162.312 9.292 162 9.416 161.64 9.488V9.536C162.328 9.616 162.84 9.832 163.176 10.184C163.512 10.536 163.68 10.996 163.68 11.564C163.68 12.06 163.564 12.504 163.332 12.896C163.1 13.28 162.74 13.58 162.252 13.796C161.772 14.012 161.152 14.12 160.392 14.12C159.944 14.12 159.528 14.084 159.144 14.012C158.76 13.948 158.392 13.828 158.04 13.652V12.668C158.4 12.844 158.788 12.984 159.204 13.088C159.62 13.184 160.02 13.232 160.404 13.232C161.172 13.232 161.724 13.084 162.06 12.788C162.404 12.484 162.576 12.068 162.576 11.54C162.576 11.18 162.48 10.892 162.288 10.676C162.104 10.452 161.832 10.288 161.472 10.184C161.112 10.08 160.68 10.028 160.176 10.028H159.348V9.128H160.188C160.66 9.128 161.052 9.06 161.364 8.924C161.684 8.788 161.924 8.6 162.084 8.36C162.252 8.112 162.336 7.828 162.336 7.508C162.336 7.092 162.196 6.772 161.916 6.548C161.636 6.316 161.256 6.2 160.776 6.2C160.472 6.2 160.196 6.232 159.948 6.296C159.7 6.352 159.468 6.436 159.252 6.548C159.044 6.652 158.832 6.776 158.616 6.92L158.088 6.2C158.296 6.04 158.532 5.892 158.796 5.756C159.068 5.62 159.368 5.512 159.696 5.432C160.024 5.352 160.38 5.312 160.764 5.312C161.66 5.312 162.324 5.512 162.756 5.912C163.196 6.312 163.416 6.82 163.416 7.436Z" fill="#E6FAFA"/>
<circle cx="225.5" cy="10" r="10" fill="#E6FAFA"/>
<path d="M224.909 9.704C224.909 10.4 224.857 11.02 224.753 11.564C224.649 12.108 224.481 12.572 224.249 12.956C224.025 13.332 223.729 13.62 223.361 13.82C223.001 14.02 222.565 14.12 222.053 14.12C221.413 14.12 220.881 13.944 220.457 13.592C220.041 13.24 219.729 12.736 219.521 12.08C219.321 11.416 219.221 10.624 219.221 9.704C219.221 8.776 219.313 7.984 219.497 7.328C219.689 6.672 219.993 6.172 220.409 5.828C220.825 5.476 221.373 5.3 222.053 5.3C222.693 5.3 223.225 5.476 223.649 5.828C224.073 6.172 224.389 6.672 224.597 7.328C224.805 7.984 224.909 8.776 224.909 9.704ZM220.277 9.704C220.277 10.488 220.333 11.14 220.445 11.66C220.565 12.18 220.753 12.572 221.009 12.836C221.273 13.092 221.621 13.22 222.053 13.22C222.485 13.22 222.829 13.092 223.085 12.836C223.349 12.58 223.541 12.192 223.661 11.672C223.781 11.144 223.841 10.488 223.841 9.704C223.841 8.92 223.781 8.272 223.661 7.76C223.541 7.24 223.349 6.852 223.085 6.596C222.829 6.332 222.485 6.2 222.053 6.2C221.621 6.2 221.273 6.332 221.009 6.596C220.753 6.852 220.565 7.24 220.445 7.76C220.333 8.272 220.277 8.92 220.277 9.704ZM232.124 12.056H230.876V14H229.856V12.056H225.752V11.156L229.784 5.384H230.876V11.108H232.124V12.056ZM229.856 8.408C229.856 8.2 229.856 8.012 229.856 7.844C229.864 7.668 229.872 7.504 229.88 7.352C229.888 7.2 229.892 7.056 229.892 6.92C229.9 6.776 229.908 6.64 229.916 6.512H229.868C229.804 6.664 229.724 6.828 229.628 7.004C229.532 7.18 229.44 7.328 229.352 7.448L226.784 11.108H229.856V8.408Z" fill="#8AE8E6"/>
<circle cx="293.5" cy="10" r="10" fill="#E6FAFA"/>
<path d="M292.909 9.704C292.909 10.4 292.857 11.02 292.753 11.564C292.649 12.108 292.481 12.572 292.249 12.956C292.025 13.332 291.729 13.62 291.361 13.82C291.001 14.02 290.565 14.12 290.053 14.12C289.413 14.12 288.881 13.944 288.457 13.592C288.041 13.24 287.729 12.736 287.521 12.08C287.321 11.416 287.221 10.624 287.221 9.704C287.221 8.776 287.313 7.984 287.497 7.328C287.689 6.672 287.993 6.172 288.409 5.828C288.825 5.476 289.373 5.3 290.053 5.3C290.693 5.3 291.225 5.476 291.649 5.828C292.073 6.172 292.389 6.672 292.597 7.328C292.805 7.984 292.909 8.776 292.909 9.704ZM288.277 9.704C288.277 10.488 288.333 11.14 288.445 11.66C288.565 12.18 288.753 12.572 289.009 12.836C289.273 13.092 289.621 13.22 290.053 13.22C290.485 13.22 290.829 13.092 291.085 12.836C291.349 12.58 291.541 12.192 291.661 11.672C291.781 11.144 291.841 10.488 291.841 9.704C291.841 8.92 291.781 8.272 291.661 7.76C291.541 7.24 291.349 6.852 291.085 6.596C290.829 6.332 290.485 6.2 290.053 6.2C289.621 6.2 289.273 6.332 289.009 6.596C288.753 6.852 288.565 7.24 288.445 7.76C288.333 8.272 288.277 8.92 288.277 9.704ZM296.8 8.744C297.384 8.744 297.892 8.844 298.324 9.044C298.756 9.244 299.088 9.532 299.32 9.908C299.56 10.276 299.68 10.728 299.68 11.264C299.68 11.856 299.552 12.368 299.296 12.8C299.04 13.224 298.672 13.552 298.192 13.784C297.72 14.008 297.148 14.12 296.476 14.12C296.036 14.12 295.62 14.08 295.228 14C294.844 13.92 294.52 13.804 294.256 13.652V12.656C294.544 12.832 294.892 12.972 295.3 13.076C295.716 13.172 296.112 13.22 296.488 13.22C296.912 13.22 297.28 13.156 297.592 13.028C297.912 12.892 298.16 12.688 298.336 12.416C298.512 12.136 298.6 11.788 298.6 11.372C298.6 10.812 298.428 10.384 298.084 10.088C297.74 9.784 297.196 9.632 296.452 9.632C296.228 9.632 295.972 9.652 295.684 9.692C295.396 9.732 295.164 9.772 294.988 9.812L294.46 9.476L294.784 5.432H299.08V6.392H295.684L295.48 8.876C295.616 8.852 295.8 8.824 296.032 8.792C296.264 8.76 296.52 8.744 296.8 8.744Z" fill="#8AE8E6"/>
<circle cx="361.5" cy="10" r="10" fill="#E6FAFA"/>
<path d="M360.909 9.704C360.909 10.624 360.813 11.416 360.621 12.08C360.429 12.736 360.125 13.24 359.709 13.592C359.293 13.944 358.741 14.12 358.053 14.12C357.085 14.12 356.369 13.732 355.905 12.956C355.449 12.172 355.221 11.088 355.221 9.704C355.221 8.776 355.313 7.984 355.497 7.328C355.689 6.672 355.993 6.172 356.409 5.828C356.825 5.476 357.373 5.3 358.053 5.3C359.013 5.3 359.729 5.688 360.201 6.464C360.673 7.232 360.909 8.312 360.909 9.704ZM356.277 9.704C356.277 10.88 356.409 11.76 356.673 12.344C356.945 12.928 357.405 13.22 358.053 13.22C358.693 13.22 359.149 12.932 359.421 12.356C359.701 11.772 359.841 10.888 359.841 9.704C359.841 8.536 359.701 7.66 359.421 7.076C359.149 6.492 358.693 6.2 358.053 6.2C357.405 6.2 356.945 6.492 356.673 7.076C356.409 7.66 356.277 8.536 356.277 9.704ZM362.16 10.34C362.16 9.724 362.212 9.12 362.316 8.528C362.428 7.928 362.624 7.388 362.904 6.908C363.192 6.42 363.592 6.032 364.104 5.744C364.616 5.456 365.276 5.312 366.084 5.312C366.252 5.312 366.436 5.32 366.636 5.336C366.844 5.352 367.012 5.38 367.14 5.42V6.32C366.996 6.272 366.832 6.236 366.648 6.212C366.472 6.188 366.292 6.176 366.108 6.176C365.556 6.176 365.096 6.268 364.728 6.452C364.36 6.636 364.068 6.888 363.852 7.208C363.644 7.528 363.492 7.896 363.396 8.312C363.3 8.728 363.24 9.172 363.216 9.644H363.288C363.472 9.364 363.728 9.128 364.056 8.936C364.384 8.736 364.804 8.636 365.316 8.636C366.06 8.636 366.66 8.864 367.116 9.32C367.572 9.768 367.8 10.408 367.8 11.24C367.8 12.136 367.552 12.84 367.056 13.352C366.568 13.864 365.908 14.12 365.076 14.12C364.532 14.12 364.04 13.984 363.6 13.712C363.16 13.44 362.808 13.024 362.544 12.464C362.288 11.904 362.16 11.196 362.16 10.34ZM365.064 13.232C365.568 13.232 365.976 13.072 366.288 12.752C366.6 12.424 366.756 11.92 366.756 11.24C366.756 10.696 366.616 10.264 366.336 9.944C366.064 9.624 365.652 9.464 365.1 9.464C364.724 9.464 364.396 9.544 364.116 9.704C363.836 9.856 363.616 10.052 363.456 10.292C363.304 10.532 363.228 10.78 363.228 11.036C363.228 11.38 363.296 11.724 363.432 12.068C363.568 12.404 363.772 12.684 364.044 12.908C364.316 13.124 364.656 13.232 365.064 13.232Z" fill="#8AE8E6"/>
</svg>
