<svg width="16" height="16" viewBox="0 0 16 16" fill="none" xmlns="http://www.w3.org/2000/svg">
<g id="Icon">
<path id="Vector" d="M12.0013 6.66663H9.33463V3.99996C9.33463 3.64634 9.19416 3.3072 8.94411 3.05715C8.69406 2.8071 8.35492 2.66663 8.0013 2.66663C7.64768 2.66663 7.30854 2.8071 7.05849 3.05715C6.80844 3.3072 6.66797 3.64634 6.66797 3.99996L6.7153 6.66663H4.0013C3.64768 6.66663 3.30854 6.8071 3.05849 7.05715C2.80844 7.3072 2.66797 7.64634 2.66797 7.99996C2.66797 8.35358 2.80844 8.69272 3.05849 8.94277C3.30854 9.19282 3.64768 9.33329 4.0013 9.33329L6.7153 9.28596L6.66797 12C6.66797 12.3536 6.80844 12.6927 7.05849 12.9428C7.30854 13.1928 7.64768 13.3333 8.0013 13.3333C8.35492 13.3333 8.69406 13.1928 8.94411 12.9428C9.19416 12.6927 9.33463 12.3536 9.33463 12V9.28596L12.0013 9.33329C12.3549 9.33329 12.6941 9.19282 12.9441 8.94277C13.1942 8.69272 13.3346 8.35358 13.3346 7.99996C13.3346 7.64634 13.1942 7.3072 12.9441 7.05715C12.6941 6.8071 12.3549 6.66663 12.0013 6.66663Z" fill="#E8AB00"/>
</g>
</svg>
