<svg xmlns="http://www.w3.org/2000/svg" width="25" height="24" viewBox="0 0 25 24" fill="none">
<path fill-rule="evenodd" clip-rule="evenodd" d="M15.8002 3.832C16.6402 2.818 17.2042 1.405 17.0502 0C15.8422 0.049 14.3802 0.805 13.5152 1.819C12.7382 2.717 12.0582 4.154 12.2422 5.531C13.5882 5.636 14.9642 4.847 15.8022 3.832M18.8222 12.75C18.8562 16.382 22.0082 17.591 22.0422 17.607C22.0172 17.692 21.5402 19.329 20.3822 21.02C19.3822 22.482 18.3442 23.939 16.7082 23.969C15.1012 23.998 14.5852 23.016 12.7472 23.016C10.9112 23.016 10.3372 23.939 8.8152 23.998C7.2372 24.058 6.0352 22.417 5.0252 20.961C2.9652 17.981 1.3902 12.541 3.5052 8.869C4.5542 7.045 6.4322 5.89 8.4702 5.861C10.0202 5.831 11.4832 6.904 12.4302 6.904C13.3782 6.904 15.1562 5.614 17.0252 5.803C17.8082 5.836 20.0042 6.119 21.4152 8.184C21.3012 8.254 18.7942 9.714 18.8212 12.75" fill="black"/>
</svg>