<svg width="249" height="40" viewBox="0 0 249 40" fill="none" xmlns="http://www.w3.org/2000/svg">
<g id="Frame 270">
<g id="Group 16">
<path id="Line (Stroke)" fill-rule="evenodd" clip-rule="evenodd" d="M2.36009 31.2778C1.05665 31.2778 0 30.2212 0 28.9177L0 11.0826C0 9.77912 1.05665 8.72247 2.36009 8.72247C3.66353 8.72247 4.72017 9.77912 4.72017 11.0826L4.72017 28.9177C4.72017 30.2212 3.66353 31.2778 2.36009 31.2778Z" fill="#B9CDF4"/>
<path id="Line (Stroke)_2" fill-rule="evenodd" clip-rule="evenodd" d="M11.8015 30.4834C10.4981 30.4834 9.44141 29.4268 9.44141 28.1233L9.44141 11.8769C9.44141 10.5734 10.4981 9.51678 11.8015 9.51678C13.1049 9.51678 14.1616 10.5734 14.1616 11.8769V28.1233C14.1616 29.4268 13.1049 30.4834 11.8015 30.4834Z" fill="#B9CDF4"/>
<path id="Line (Stroke)_3" fill-rule="evenodd" clip-rule="evenodd" d="M21.239 35.925C19.9356 35.925 18.8789 34.8684 18.8789 33.565L18.8789 6.4356C18.8789 5.13216 19.9356 4.07552 21.239 4.07552C22.5424 4.07552 23.5991 5.13216 23.5991 6.4356V33.565C23.5991 34.8684 22.5424 35.925 21.239 35.925Z" fill="#B9CDF4"/>
<path id="Line (Stroke)_4" fill-rule="evenodd" clip-rule="evenodd" d="M30.6804 35.5609C29.377 35.5609 28.3203 34.5043 28.3203 33.2008V6.79988C28.3203 5.49644 29.377 4.43979 30.6804 4.43979C31.9838 4.43979 33.0405 5.49644 33.0405 6.79988V33.2008C33.0405 34.5043 31.9838 35.5609 30.6804 35.5609Z" fill="#B9CDF4"/>
<path id="Line (Stroke)_5" fill-rule="evenodd" clip-rule="evenodd" d="M40.1218 33.6953C38.8184 33.6953 37.7617 32.6387 37.7617 31.3352V8.6649C37.7617 7.36146 38.8184 6.30482 40.1218 6.30482C41.4252 6.30482 42.4819 7.36146 42.4819 8.6649V31.3352C42.4819 32.6387 41.4252 33.6953 40.1218 33.6953Z" fill="#B9CDF4"/>
<path id="Line (Stroke)_6" fill-rule="evenodd" clip-rule="evenodd" d="M49.5632 29.916C48.2598 29.916 47.2031 28.8594 47.2031 27.5559V12.4446C47.2031 11.1411 48.2598 10.0845 49.5632 10.0845C50.8667 10.0845 51.9233 11.1411 51.9233 12.4446V27.5559C51.9233 28.8594 50.8667 29.916 49.5632 29.916Z" fill="#B9CDF4"/>
<path id="Line (Stroke)_7" fill-rule="evenodd" clip-rule="evenodd" d="M59.0007 27.2333C57.6973 27.2333 56.6406 26.1766 56.6406 24.8732V15.1273C56.6406 13.8238 57.6973 12.7672 59.0007 12.7672C60.3042 12.7672 61.3608 13.8238 61.3608 15.1273V24.8732C61.3608 26.1766 60.3042 27.2333 59.0007 27.2333Z" fill="#B9CDF4"/>
<path id="Line (Stroke)_8" fill-rule="evenodd" clip-rule="evenodd" d="M68.4421 27.7493C67.1387 27.7493 66.082 26.6926 66.082 25.3892V14.6112C66.082 13.3078 67.1387 12.2511 68.4421 12.2511C69.7456 12.2511 70.8022 13.3078 70.8022 14.6112V25.3892C70.8022 26.6926 69.7456 27.7493 68.4421 27.7493Z" fill="#B9CDF4"/>
<path id="Line (Stroke)_9" fill-rule="evenodd" clip-rule="evenodd" d="M77.8835 25.1953C76.5801 25.1953 75.5234 24.1387 75.5234 22.8352V17.1651C75.5234 15.8616 76.5801 14.805 77.8835 14.805C79.187 14.805 80.2436 15.8616 80.2436 17.1651V22.8352C80.2436 24.1387 79.187 25.1953 77.8835 25.1953Z" fill="#B9CDF4"/>
<path id="Line (Stroke)_10" fill-rule="evenodd" clip-rule="evenodd" d="M87.3249 35.1663C86.0215 35.1663 84.9648 34.1096 84.9648 32.8062V7.19381C84.9648 5.89037 86.0215 4.83372 87.3249 4.83372C88.6284 4.83372 89.685 5.89037 89.685 7.19381V32.8062C89.685 34.1096 88.6284 35.1663 87.3249 35.1663Z" fill="#B9CDF4"/>
<path id="Line (Stroke)_11" fill-rule="evenodd" clip-rule="evenodd" d="M96.7624 39.7756C95.459 39.7756 94.4023 38.719 94.4023 37.4155V2.58463C94.4023 1.28119 95.459 0.224545 96.7624 0.224545C98.0659 0.224545 99.1225 1.28119 99.1225 2.58463V37.4155C99.1225 38.719 98.0659 39.7756 96.7624 39.7756Z" fill="#B9CDF4"/>
<path id="Line (Stroke)_12" fill-rule="evenodd" clip-rule="evenodd" d="M106.204 29.4631C104.9 29.4631 103.844 28.4065 103.844 27.103V12.8973C103.844 11.5939 104.9 10.5373 106.204 10.5373C107.507 10.5373 108.564 11.5939 108.564 12.8973V27.103C108.564 28.4065 107.507 29.4631 106.204 29.4631Z" fill="#B9CDF4"/>
<path id="Line (Stroke)_13" fill-rule="evenodd" clip-rule="evenodd" d="M115.645 26.9473C114.342 26.9473 113.285 25.8906 113.285 24.5872V15.4128C113.285 14.1094 114.342 13.0527 115.645 13.0527C116.949 13.0527 118.005 14.1094 118.005 15.4128V24.5872C118.005 25.8906 116.949 26.9473 115.645 26.9473Z" fill="#B9CDF4"/>
<path id="Line (Stroke)_14" fill-rule="evenodd" clip-rule="evenodd" d="M125.087 40C123.783 40 122.727 38.9434 122.727 37.6399V2.36008C122.727 1.05665 123.783 0 125.087 0C126.39 0 127.447 1.05665 127.447 2.36008V37.6399C127.447 38.9434 126.39 40 125.087 40Z" fill="#B9CDF4"/>
<path id="Line (Stroke)_15" fill-rule="evenodd" clip-rule="evenodd" d="M134.524 25.1007C133.221 25.1007 132.164 24.0441 132.164 22.7406V17.2593C132.164 15.9559 133.221 14.8992 134.524 14.8992C135.828 14.8992 136.884 15.9559 136.884 17.2593V22.7406C136.884 24.0441 135.828 25.1007 134.524 25.1007Z" fill="#B9CDF4"/>
<path id="Line (Stroke)_16" fill-rule="evenodd" clip-rule="evenodd" d="M143.966 30.6537C142.662 30.6537 141.605 29.597 141.605 28.2936V11.7068C141.605 10.4034 142.662 9.34676 143.966 9.34676C145.269 9.34676 146.326 10.4034 146.326 11.7068V28.2936C146.326 29.597 145.269 30.6537 143.966 30.6537Z" fill="#B9CDF4"/>
<path id="Line (Stroke)_17" fill-rule="evenodd" clip-rule="evenodd" d="M153.407 37.2662C152.104 37.2662 151.047 36.2096 151.047 34.9061V5.09375C151.047 3.79031 152.104 2.73366 153.407 2.73366C154.71 2.73366 155.767 3.79031 155.767 5.09375V34.9061C155.767 36.2096 154.71 37.2662 153.407 37.2662Z" fill="#B9CDF4"/>
<path id="Line (Stroke)_18" fill-rule="evenodd" clip-rule="evenodd" d="M162.844 26.1139C161.541 26.1139 160.484 25.0572 160.484 23.7538V16.2461C160.484 14.9427 161.541 13.886 162.844 13.886C164.148 13.886 165.205 14.9427 165.205 16.2461V23.7538C165.205 25.0572 164.148 26.1139 162.844 26.1139Z" fill="#B9CDF4"/>
<path id="Line (Stroke)_19" fill-rule="evenodd" clip-rule="evenodd" d="M172.286 30.4136C170.982 30.4136 169.926 29.3569 169.926 28.0535V11.9467C169.926 10.6433 170.982 9.58664 172.286 9.58664C173.589 9.58664 174.646 10.6433 174.646 11.9467V28.0535C174.646 29.3569 173.589 30.4136 172.286 30.4136Z" fill="#B9CDF4"/>
<path id="Line (Stroke)_20" fill-rule="evenodd" clip-rule="evenodd" d="M181.727 31.4905C180.424 31.4905 179.367 30.4338 179.367 29.1304V10.8695C179.367 9.56608 180.424 8.50943 181.727 8.50943C183.031 8.50943 184.087 9.56608 184.087 10.8695V29.1304C184.087 30.4338 183.031 31.4905 181.727 31.4905Z" fill="#B9CDF4"/>
<path id="Line (Stroke)_21" fill-rule="evenodd" clip-rule="evenodd" d="M191.169 28.5583C189.865 28.5583 188.809 27.5017 188.809 26.1983V13.8022C188.809 12.4987 189.865 11.4421 191.169 11.4421C192.472 11.4421 193.529 12.4987 193.529 13.8022V26.1983C193.529 27.5017 192.472 28.5583 191.169 28.5583Z" fill="#B9CDF4"/>
<path id="Line (Stroke)_22" fill-rule="evenodd" clip-rule="evenodd" d="M200.606 30.5796C199.303 30.5796 198.246 29.5229 198.246 28.2195V11.781C198.246 10.4776 199.303 9.42092 200.606 9.42092C201.91 9.42092 202.966 10.4776 202.966 11.781V28.2195C202.966 29.5229 201.91 30.5796 200.606 30.5796Z" fill="#B9CDF4"/>
<path id="Line (Stroke)_23" fill-rule="evenodd" clip-rule="evenodd" d="M210.048 25.5417C208.744 25.5417 207.688 24.4851 207.688 23.1817V16.8187C207.688 15.5152 208.744 14.4586 210.048 14.4586C211.351 14.4586 212.408 15.5152 212.408 16.8187V23.1817C212.408 24.4851 211.351 25.5417 210.048 25.5417Z" fill="#B9CDF4"/>
<path id="Line (Stroke)_24" fill-rule="evenodd" clip-rule="evenodd" d="M219.489 38.2068C218.186 38.2068 217.129 37.1501 217.129 35.8467V4.15335C217.129 2.84991 218.186 1.79327 219.489 1.79327C220.792 1.79327 221.849 2.84991 221.849 4.15335V35.8467C221.849 37.1501 220.792 38.2068 219.489 38.2068Z" fill="#B9CDF4"/>
<path id="Line (Stroke)_25" fill-rule="evenodd" clip-rule="evenodd" d="M228.93 29.4753C227.627 29.4753 226.57 28.4187 226.57 27.1153V12.8848C226.57 11.5814 227.627 10.5247 228.93 10.5247C230.234 10.5247 231.29 11.5814 231.29 12.8848V27.1153C231.29 28.4187 230.234 29.4753 228.93 29.4753Z" fill="#B9CDF4"/>
</g>
</g>
</svg>
