<svg width="142" height="49" viewBox="0 0 142 49" fill="none" xmlns="http://www.w3.org/2000/svg">
<g id="Group 616">
<path id="Vector 5" d="M1 48.5633C2.661 41.7064 10.2727 10.4095 27.4316 11.9686C48.8802 13.9174 67.7289 50.512 78.3449 24.3111C88.9608 -1.88975 93.2939 -6.00407 103.693 11.9686C107.163 17.965 112.152 25.8015 117.357 31.9101L139.728 28.7083C140.19 26.0803 140.533 22.9955 140.741 19.4052V28.5633L139.728 28.7083C136.328 48.0493 126.508 42.6509 117.357 31.9101L1 48.5633Z" fill="url(#paint0_linear_608_72979)"/>
<path id="Vector 4" d="M1 48.5633C2.661 41.7064 10.2727 10.4095 27.4316 11.9686C48.8802 13.9174 67.7289 50.512 78.3449 24.3111C88.9608 -1.88975 93.2939 -6.00407 103.693 11.9686C114.093 29.9412 138.141 65.102 140.741 20.0625" stroke="#1D5EDD"/>
</g>
<defs>
<linearGradient id="paint0_linear_608_72979" x1="71" y1="-106.438" x2="104.504" y2="37.5616" gradientUnits="userSpaceOnUse">
<stop stop-color="#1A56C9"/>
<stop offset="0.925925" stop-color="#1A56C9" stop-opacity="0"/>
</linearGradient>
</defs>
</svg>
