<svg width="20" height="20" viewBox="0 0 20 20" fill="none" xmlns="http://www.w3.org/2000/svg">
<g id="Icon">
<path id="Vector" d="M17.7402 2.76019C18.5472 3.57009 19.0004 4.66684 19.0004 5.81019C19.0004 6.95355 18.5472 8.05029 17.7402 8.86019L16.2102 10.3802C15.0902 11.5002 13.5102 11.8502 12.0702 11.4702L14.6902 8.86019L15.4502 8.09019L16.2102 7.33019C17.0502 6.49019 17.0502 5.13019 16.2102 4.29019C16.0119 4.08822 15.7754 3.92778 15.5144 3.81826C15.2534 3.70875 14.9732 3.65234 14.6902 3.65234C14.4072 3.65234 14.127 3.70875 13.866 3.81826C13.605 3.92778 13.3685 4.08822 13.1702 4.29019L12.4002 5.05019L9.02019 8.43019C8.65019 6.99019 9.00019 5.41019 10.1202 4.29019L11.6402 2.76019C12.4501 1.95315 13.5468 1.5 14.6902 1.5C15.8335 1.5 16.9303 1.95315 17.7402 2.76019ZM8.59019 13.4302L13.9302 8.09019C14.3502 7.67019 14.3502 6.99019 13.9302 6.57019C13.4902 6.14019 12.8002 6.18019 12.4002 6.57019L7.07019 11.9102C6.65019 12.3302 6.65019 13.0102 7.07019 13.4302C7.51019 13.8602 8.20019 13.8202 8.59019 13.4302ZM7.83019 15.7202L11.9702 11.5702C12.3502 13.0102 12.0002 14.5902 10.8802 15.7102L9.36019 17.2402C8.55029 18.0472 7.45355 18.5004 6.31019 18.5004C5.16684 18.5004 4.07009 18.0472 3.26019 17.2402C2.45315 16.4303 2 15.3335 2 14.1902C2 13.0468 2.45315 11.9501 3.26019 11.1402L4.79019 9.62019C5.91019 8.50019 7.49019 8.15019 8.93019 8.52019L4.79019 12.6702C3.94019 13.5102 3.94019 14.8702 4.79019 15.7202C5.63019 16.5602 6.99019 16.5602 7.83019 15.7202Z" fill="#676767"/>
</g>
</svg>
