<svg width="20" height="29" viewBox="0 0 20 29" fill="none" xmlns="http://www.w3.org/2000/svg">
<g id="&#240;&#159;&#166;&#134; emoji &#34;thumbs up sign&#34;">
<path id="Vector" d="M10.0918 12.3343C10.0918 12.3343 12.1442 12.7541 10.465 9.25584C9.25226 6.73708 9.39219 3.79853 10.465 2.25928C12.2375 -0.212833 15.6424 0.58011 15.2693 2.02606C14.0566 6.92365 16.8085 8.41625 18.2079 11.4947C19.6538 14.6199 19.5139 19.0977 18.8609 23.0624C18.4411 25.5345 17.3683 28.613 13.4968 28.613H8.13281L10.0918 12.3343Z" fill="#FFDD67"/>
<path id="Vector_2" d="M12.8905 27.9142C16.7619 27.9142 17.6015 24.8357 18.0213 22.3636C18.6743 18.3989 18.7676 15.2271 17.5082 12.0087C16.1089 8.51043 14.6629 8.41715 14.6629 1.51388C14.6629 1.18737 14.4764 0.954153 14.2898 0.767578C14.9428 1.0008 15.3159 1.37395 15.3159 1.93367C15.3159 7.11112 16.7619 8.3705 18.1612 11.4956C19.6538 14.6208 19.5139 19.0986 18.8609 23.0633C18.4411 25.5354 17.3683 28.6139 13.4968 28.6139H8.13281V27.9142H12.8905Z" fill="#EBA352"/>
<path id="Vector_3" d="M3.46594 16.392H10.0893C12.4215 16.392 12.4215 12.334 10.0893 12.334H3.46594C1.13375 12.334 1.13375 16.392 3.46594 16.392Z" fill="#FFDD67"/>
<path id="Vector_4" d="M2.96171 15.7369H9.58512C11.171 15.7369 11.6374 13.8712 11.1244 12.7051C12.3837 13.6846 12.0106 16.4366 10.1448 16.4366H3.47479C2.72849 16.4366 2.21541 16.0168 1.93555 15.4104C2.21541 15.597 2.54191 15.7369 2.96171 15.7369Z" fill="#EBA352"/>
<path id="Vector_5" d="M2.77085 20.4975H10.7003C13.4989 20.4975 13.4989 16.4395 10.7003 16.4395H2.72421C-0.0277728 16.4395 -0.0277727 20.4975 2.77085 20.4975Z" fill="#FFDD67"/>
<path id="Vector_6" d="M2.11899 19.7994H10.0951C11.9608 19.7994 12.5672 17.9337 11.9142 16.7676C13.4068 17.7471 12.987 20.4991 10.7014 20.4991H2.72535C1.83912 20.4991 1.23276 20.0793 0.90625 19.4729C1.23276 19.6595 1.65255 19.7994 2.11899 19.7994Z" fill="#EBA352"/>
<path id="Vector_7" d="M3.51459 24.5521H10.2313C12.5635 24.5521 12.5635 20.4941 10.2313 20.4941H3.51459C1.13576 20.4941 1.13576 24.5521 3.51459 24.5521Z" fill="#FFDD67"/>
<path id="Vector_8" d="M2.95803 23.8558H9.72137C11.3073 23.8558 11.8203 21.9901 11.2606 20.7773C12.52 21.7569 12.1935 24.5088 10.2345 24.5088H3.51776C2.77146 24.5088 2.25838 24.089 1.97852 23.4827C2.21173 23.7625 2.58488 23.8558 2.95803 23.8558Z" fill="#EBA352"/>
<path id="Vector_9" d="M4.2172 28.6127H8.55506C11.0738 28.6127 11.0738 24.5547 8.55506 24.5547H4.2172C1.69844 24.5547 1.69844 28.6127 4.2172 28.6127Z" fill="#FFDD67"/>
<path id="Vector_10" d="M3.6646 27.9632H8.00247C9.68164 27.9632 10.2414 26.0975 9.635 24.8848C10.9877 25.8643 10.6145 28.6163 8.56219 28.6163H4.22433C3.38474 28.6163 2.87166 28.1965 2.5918 27.5901C2.87166 27.8233 3.24481 27.9632 3.6646 27.9632Z" fill="#EBA352"/>
</g>
</svg>
