<svg width="16" height="16" viewBox="0 0 16 16" fill="none" xmlns="http://www.w3.org/2000/svg">
<g id="Icon" clip-path="url(#clip0_3715_15050)">
<path id="Vector" d="M6.40039 6.92813C6.40039 6.50378 6.56896 6.09681 6.86902 5.79675C7.16908 5.4967 7.57604 5.32813 8.00039 5.32812C8.42474 5.32812 8.8317 5.4967 9.13176 5.79675C9.43182 6.09681 9.60039 6.50378 9.60039 6.92813C9.60039 7.35247 9.43182 7.75944 9.13176 8.0595C8.8317 8.35955 8.42474 8.52813 8.00039 8.52813C7.57604 8.52813 7.16908 8.35955 6.86902 8.0595C6.56896 7.75944 6.40039 7.35247 6.40039 6.92813Z" fill="#1D5EDD"/>
<path id="Vector_2" fill-rule="evenodd" clip-rule="evenodd" d="M1.06641 6.92907C1.06725 5.09088 1.79814 3.3283 3.09833 2.02891C4.39852 0.729515 6.16156 -0.000282954 7.99974 8.22966e-08C11.828 8.22966e-08 14.9331 3.10293 14.9331 6.92907C14.9331 9.78133 13.5059 12.0416 11.9763 13.5691C11.3001 14.2482 10.5423 14.8408 9.72027 15.3333C9.37681 15.536 9.05574 15.696 8.77627 15.8048C8.51281 15.9093 8.23654 15.9904 7.99974 15.9904C7.76294 15.9904 7.48667 15.9093 7.22321 15.8048C6.89694 15.672 6.58135 15.5144 6.27921 15.3333C5.45717 14.8408 4.69939 14.2481 4.02321 13.5691C2.49361 12.0416 1.06641 9.78133 1.06641 6.92907ZM7.99974 4.26347C7.2925 4.26347 6.61422 4.54442 6.11412 5.04452C5.61402 5.54461 5.33307 6.22289 5.33307 6.93013C5.33307 7.63738 5.61402 8.31565 6.11412 8.81575C6.61422 9.31585 7.2925 9.5968 7.99974 9.5968C8.70698 9.5968 9.38526 9.31585 9.88536 8.81575C10.3855 8.31565 10.6664 7.63738 10.6664 6.93013C10.6664 6.22289 10.3855 5.54461 9.88536 5.04452C9.38526 4.54442 8.70698 4.26347 7.99974 4.26347Z" fill="#1D5EDD"/>
</g>
<defs>
<clipPath id="clip0_3715_15050">
<rect width="16" height="16" fill="white"/>
</clipPath>
</defs>
</svg>
