<svg width="247" height="220" viewBox="0 0 247 220" fill="none" xmlns="http://www.w3.org/2000/svg">
<g id="Group">
<path id="Vector" d="M123.5 219.109C183.797 219.109 232.677 170.259 232.677 110C232.677 49.7404 183.797 0.890625 123.5 0.890625C63.2027 0.890625 14.3223 49.7404 14.3223 110C14.3223 170.259 63.2027 219.109 123.5 219.109Z" fill="white"/>
<path id="Vector_2" opacity="0.1" d="M123.5 219.109C183.797 219.109 232.677 170.259 232.677 110C232.677 49.7404 183.797 0.890625 123.5 0.890625C63.2027 0.890625 14.3223 49.7404 14.3223 110C14.3223 170.259 63.2027 219.109 123.5 219.109Z" fill="#4A7EE4"/>
<g id="Group_2">
<path id="Vector_3" d="M52.5452 147.059L0.333008 146.901L0.547835 76.0156L36.6514 76.125L52.7112 92.2724L52.5452 147.059Z" fill="white"/>
<path id="Vector_4" opacity="0.3" d="M36.6504 76.125L36.6016 92.2236L52.7102 92.2724L36.6504 76.125Z" fill="#1D5EDD"/>
<path id="Vector_5" d="M53.0393 92.2528C53.0373 92.2237 53.0316 92.195 53.0223 92.1673C53.0187 92.1567 53.016 92.1464 53.0113 92.1358C52.9958 92.0997 52.9738 92.0667 52.9465 92.0384L36.8867 75.891C36.8584 75.8632 36.8254 75.8407 36.7893 75.8245C36.7792 75.8202 36.7688 75.8164 36.7583 75.8132C36.7304 75.8035 36.7013 75.7977 36.6719 75.7959C36.6649 75.7959 36.6586 75.7916 36.6516 75.7916L0.548374 75.6836C0.460176 75.6836 0.375591 75.7186 0.313226 75.7809C0.250861 75.8433 0.215824 75.9278 0.215824 76.0159L0 146.9C0 146.988 0.0350363 147.073 0.0974014 147.135C0.159766 147.197 0.244352 147.232 0.332549 147.232L52.5428 147.391C52.631 147.391 52.7156 147.356 52.7779 147.294C52.8403 147.232 52.8753 147.147 52.8753 147.059L53.0416 92.2727C53.0433 92.2664 53.0396 92.2601 53.0393 92.2528ZM36.9795 76.9289L44.3953 84.3823L51.9089 91.937L36.9356 91.8915L36.9795 76.9289ZM0.665098 146.569L0.87793 76.3493L36.316 76.4566L36.2685 92.2228C36.2685 92.311 36.3035 92.3955 36.3659 92.4579C36.4283 92.5202 36.5128 92.5552 36.601 92.5552L52.3772 92.603L52.2132 146.725L0.665098 146.569Z" fill="#262626"/>
</g>
<g id="Group_3">
<path id="Vector_6" d="M158.986 144.223L87.7861 144.007L88.0791 47.3438L137.312 47.493L159.212 69.5125L158.986 144.223Z" fill="white"/>
<path id="Vector_7" opacity="0.3" d="M137.312 47.4941L137.245 69.4472L159.212 69.5137L137.312 47.4941Z" fill="#1D5EDD"/>
<path id="Vector_8" d="M159.54 69.4933C159.539 69.4643 159.533 69.4357 159.524 69.4082C159.52 69.3972 159.517 69.3869 159.513 69.3749C159.497 69.3389 159.475 69.3059 159.448 69.2776L137.548 47.258C137.519 47.2302 137.486 47.2077 137.45 47.1916C137.44 47.1869 137.43 47.1842 137.419 47.1806C137.391 47.1709 137.362 47.165 137.333 47.163C137.326 47.163 137.32 47.159 137.313 47.159L88.0796 47.0098C87.9914 47.0098 87.9068 47.0448 87.8445 47.1071C87.7821 47.1694 87.7471 47.254 87.7471 47.3421L87.4541 144.005C87.4541 144.093 87.4891 144.178 87.5515 144.24C87.6139 144.303 87.6985 144.338 87.7867 144.338L158.985 144.553C159.074 144.553 159.158 144.518 159.221 144.456C159.283 144.394 159.318 144.309 159.318 144.221L159.544 69.5109C159.544 69.5069 159.541 69.5006 159.54 69.4933ZM137.641 48.2969L158.409 69.1785L137.578 69.1154L137.641 48.2969ZM88.1192 143.676L88.4102 47.6778L136.978 47.825L136.911 69.4457C136.911 69.5339 136.947 69.6184 137.009 69.6807C137.071 69.7431 137.156 69.7781 137.244 69.7781L158.878 69.8445L158.654 143.89L88.1192 143.676Z" fill="#262626"/>
</g>
<g id="Group_4">
<path id="Vector_9" d="M246.501 147.059L194.289 146.901L194.504 76.0156L230.607 76.125L246.667 92.2724L246.501 147.059Z" fill="white"/>
<path id="Vector_10" opacity="0.3" d="M230.607 76.125L230.559 92.2236L246.667 92.2724L230.607 76.125Z" fill="#1D5EDD"/>
<path id="Vector_11" d="M246.995 92.2521C246.994 92.2231 246.988 92.1943 246.979 92.1667C246.975 92.1561 246.972 92.1458 246.967 92.1352C246.952 92.0991 246.93 92.0661 246.903 92.0378L230.843 75.8904C230.815 75.8626 230.782 75.84 230.746 75.8239C230.735 75.8192 230.725 75.8162 230.714 75.8126C230.687 75.8029 230.658 75.7971 230.628 75.7953C230.621 75.7953 230.615 75.791 230.608 75.791L194.504 75.6816C194.416 75.6816 194.332 75.7167 194.269 75.779C194.207 75.8413 194.172 75.9258 194.172 76.014L193.957 146.899C193.957 146.987 193.992 147.072 194.054 147.134C194.117 147.196 194.201 147.231 194.29 147.231L246.502 147.389C246.59 147.389 246.675 147.354 246.737 147.292C246.799 147.23 246.834 147.145 246.834 147.057L247.001 92.2708C246.999 92.2658 246.996 92.2595 246.995 92.2521ZM230.937 76.9283L238.35 84.3817L245.865 91.9364L230.892 91.8909L230.937 76.9283ZM194.622 146.569L194.835 76.3486L230.274 76.456L230.226 92.2222C230.226 92.3104 230.261 92.3949 230.323 92.4572C230.386 92.5196 230.47 92.5546 230.558 92.5546L246.335 92.6024L246.171 146.724L194.622 146.569Z" fill="#262626"/>
</g>
<g id="Group_5">
<g id="Group_6">
<g id="Group_7">
<g id="Group_8">
<path id="Vector_12" d="M105.717 103.673C108.469 103.673 110.701 101.443 110.701 98.692C110.701 95.9411 108.469 93.7109 105.717 93.7109C102.964 93.7109 100.732 95.9411 100.732 98.692C100.732 101.443 102.964 103.673 105.717 103.673Z" fill="#292A2E"/>
<path id="Vector_13" d="M139.893 103.673C142.646 103.673 144.878 101.443 144.878 98.692C144.878 95.9411 142.646 93.7109 139.893 93.7109C137.141 93.7109 134.909 95.9411 134.909 98.692C134.909 101.443 137.141 103.673 139.893 103.673Z" fill="#292A2E"/>
</g>
<path id="Vector_14" d="M129.488 112.467H116.124C116.035 112.467 115.951 112.432 115.888 112.37C115.826 112.308 115.791 112.223 115.791 112.135C115.791 112.047 115.826 111.962 115.888 111.9C115.951 111.838 116.035 111.803 116.124 111.803H129.488C129.576 111.803 129.661 111.838 129.723 111.9C129.786 111.962 129.821 112.047 129.821 112.135C129.821 112.223 129.786 112.308 129.723 112.37C129.661 112.432 129.576 112.467 129.488 112.467Z" fill="#262626"/>
</g>
<g id="Group_9">
<path id="Vector_15" d="M100.575 112.941C103.031 112.941 105.021 111.894 105.021 110.602C105.021 109.311 103.031 108.264 100.575 108.264C98.1195 108.264 96.1289 109.311 96.1289 110.602C96.1289 111.894 98.1195 112.941 100.575 112.941Z" fill="white"/>
<path id="Vector_16" d="M145.034 112.941C147.49 112.941 149.48 111.894 149.48 110.602C149.48 109.311 147.49 108.264 145.034 108.264C142.579 108.264 140.588 109.311 140.588 110.602C140.588 111.894 142.579 112.941 145.034 112.941Z" fill="white"/>
</g>
<g id="Group_10" opacity="0.4">
<path id="Vector_17" d="M100.575 112.941C103.031 112.941 105.021 111.894 105.021 110.602C105.021 109.311 103.031 108.264 100.575 108.264C98.1195 108.264 96.1289 109.311 96.1289 110.602C96.1289 111.894 98.1195 112.941 100.575 112.941Z" fill="#1D5EDD"/>
<path id="Vector_18" d="M145.034 112.941C147.49 112.941 149.48 111.894 149.48 110.602C149.48 109.311 147.49 108.264 145.034 108.264C142.579 108.264 140.588 109.311 140.588 110.602C140.588 111.894 142.579 112.941 145.034 112.941Z" fill="#1D5EDD"/>
</g>
</g>
<path id="Vector_19" d="M159.321 70.3041C150.834 60.5663 138.824 54.5963 125.933 53.7074C113.042 52.8185 100.325 57.0833 90.5806 65.5639C74.3003 79.7339 69.2974 103.292 78.4169 122.859C80.2481 126.78 82.596 130.439 85.3981 133.737L85.9967 134.446L41.3713 181.775C40.5552 182.653 40.1197 183.818 40.1598 185.016C40.1998 186.214 40.7121 187.347 41.5849 188.169C42.4578 188.991 43.6204 189.434 44.8192 189.403C46.018 189.371 47.1558 188.867 47.9844 188.001L92.5988 140.679L93.3441 141.237C102.972 148.454 114.932 151.855 126.919 150.784C138.906 149.713 150.073 144.246 158.267 135.436C166.461 126.627 171.103 115.099 171.297 103.072C171.492 91.0465 167.226 79.3739 159.322 70.3041H159.321ZM162.118 105.01C161.427 115.009 156.97 124.375 149.643 131.22C142.317 138.065 132.666 141.88 122.637 141.896C121.711 141.896 120.782 141.863 119.85 141.796C113.339 141.354 107.039 139.314 101.507 135.856C95.9746 132.398 91.3817 127.629 88.1356 121.972C84.8894 116.316 83.0902 109.946 82.8975 103.427C82.7047 96.9091 84.1245 90.4441 87.0308 84.6055C89.9371 78.767 94.2402 73.7355 99.5584 69.957C104.877 66.1786 111.046 63.7701 117.518 62.945C123.991 62.12 130.567 62.904 136.664 65.2274C142.761 67.5509 148.19 71.342 152.47 76.2646C155.899 80.1814 158.517 84.7384 160.173 89.6722C161.829 94.606 162.49 99.819 162.118 105.01Z" fill="#1D5EDD"/>
</g>
</g>
</svg>
