<svg width="285" height="190" viewBox="0 0 285 190" fill="none" xmlns="http://www.w3.org/2000/svg">
<g clip-path="url(#clip0_4267_15202)">
<path d="M272.1 190.001C275.022 189.999 277.849 188.96 280.083 187.067C282.317 185.174 283.814 182.548 284.31 179.653C286.724 165.644 284.632 139.366 247.339 113.11C211.383 87.7936 227.6 14.9041 151.202 19.9334C74.8041 24.9627 82.0885 78.8298 35.2431 103.519C1.89056 121.097 -0.940315 157.482 0.195995 176.985C0.397719 180.503 1.92921 183.811 4.47688 186.23C7.02455 188.65 10.3957 189.999 13.9 190.001H272.1Z" fill="#B9CDF4"/>
<path d="M220.986 2.375H145.491C139.71 2.375 135.023 7.08817 135.023 12.9022V177.099C135.023 182.913 139.71 187.626 145.491 187.626H220.986C226.767 187.626 231.454 182.913 231.454 177.099V12.9022C231.454 7.08817 226.767 2.375 220.986 2.375Z" fill="#FEFEFE"/>
<path d="M220.986 190H145.491C142.09 189.996 138.829 188.636 136.423 186.217C134.018 183.798 132.665 180.519 132.662 177.098V12.9017C132.666 9.48113 134.018 6.20176 136.424 3.78306C138.829 1.36436 142.09 0.00384649 145.491 0L220.986 0C224.388 0.00384649 227.649 1.36436 230.054 3.78306C232.459 6.20176 233.812 9.48113 233.816 12.9017V177.098C233.812 180.519 232.459 183.798 230.054 186.217C227.649 188.636 224.387 189.996 220.986 190ZM145.491 4.74913C143.342 4.75155 141.281 5.61126 139.761 7.13965C138.242 8.66803 137.387 10.7403 137.384 12.9017V177.098C137.387 179.259 138.242 181.332 139.761 182.86C141.281 184.388 143.342 185.248 145.491 185.251H220.986C223.136 185.248 225.196 184.388 226.716 182.86C228.236 181.332 229.091 179.259 229.093 177.098V12.9017C229.091 10.7403 228.236 8.66803 226.716 7.13965C225.196 5.61126 223.136 4.75155 220.986 4.74913H145.491Z" fill="#B9CDF4"/>
<path d="M166.708 2.375H199.769V8.82559C199.769 10.1062 199.263 11.3344 198.363 12.2399C197.462 13.1454 196.241 13.6541 194.967 13.6541H171.51C170.236 13.6541 169.015 13.1454 168.115 12.2399C167.214 11.3344 166.708 10.1062 166.708 8.82559V2.375Z" fill="#B9CDF4"/>
<path d="M218 20H149C146.239 20 144 22.2386 144 25V173C144 175.761 146.239 178 149 178H218C220.761 178 223 175.761 223 173V25C223 22.2386 220.761 20 218 20Z" fill="#97B5EF"/>
<path d="M176 112.526L190.996 100.263L176 88V112.526Z" fill="#FEFEFE"/>
<path d="M92.3363 187.088L86.7554 186.42C87.0067 184.296 87.2906 181.745 87.3099 181.326C87.3099 181.353 87.3099 181.375 87.3099 181.392H92.9299C92.9288 181.562 92.9288 182.077 92.3363 187.088Z" fill="#E98862"/>
<path d="M69.9428 187.764L64.3228 187.746C64.3228 187.746 64.3415 181.909 64.3415 181.393H69.9615C69.9615 181.911 69.9428 187.764 69.9428 187.764Z" fill="#E98862"/>
<path d="M76.7745 189.948C76.9257 189.948 77.0751 189.916 77.2133 189.854C77.3516 189.793 77.4759 189.704 77.5782 189.592C77.6806 189.48 77.759 189.348 77.8084 189.205C77.8579 189.061 77.8774 188.909 77.8656 188.757C77.8493 188.547 77.7736 188.346 77.6476 188.178C77.5215 188.009 77.3503 187.881 77.154 187.807L70.6126 185.604C70.4859 185.562 70.3516 185.548 70.2189 185.562C70.0863 185.577 69.9584 185.621 69.844 185.69C68.9447 186.317 67.869 186.638 66.775 186.605C65.9229 186.544 65.1049 186.244 64.4146 185.738C64.3539 185.688 64.2803 185.656 64.2024 185.646C64.1245 185.637 64.0456 185.65 63.9747 185.684C63.9038 185.717 63.844 185.771 63.8021 185.838C63.7603 185.904 63.7381 185.982 63.7383 186.061V189.277C63.7383 189.372 63.7569 189.466 63.7931 189.554C63.8293 189.641 63.8823 189.721 63.9491 189.788C64.016 189.855 64.0953 189.908 64.1826 189.944C64.2698 189.98 64.3633 189.998 64.4576 189.998L76.7745 189.948Z" fill="#0C275D"/>
<path d="M99.1835 189.948C99.3346 189.948 99.484 189.916 99.6223 189.854C99.7605 189.793 99.8848 189.704 99.9871 189.592C100.089 189.48 100.168 189.348 100.217 189.205C100.267 189.061 100.286 188.909 100.274 188.757C100.258 188.547 100.183 188.346 100.056 188.178C99.9305 188.009 99.7592 187.881 99.563 187.807L93.0216 185.604C92.8948 185.562 92.7606 185.548 92.6279 185.562C92.4952 185.577 92.3673 185.621 92.253 185.69C91.3537 186.317 90.2779 186.638 89.1839 186.605C88.3317 186.544 87.5137 186.244 86.8232 185.738C86.7625 185.688 86.689 185.656 86.6111 185.646C86.5332 185.637 86.4543 185.65 86.3834 185.684C86.3125 185.717 86.2527 185.771 86.2108 185.838C86.169 185.904 86.1468 185.982 86.147 186.061V189.277C86.147 189.372 86.1656 189.466 86.2018 189.554C86.238 189.641 86.2911 189.721 86.3579 189.788C86.4248 189.855 86.5041 189.908 86.5914 189.944C86.6787 189.98 86.7722 189.998 86.8666 189.998L99.1835 189.948Z" fill="#0C275D"/>
<path d="M84.509 185.303L94.4109 185.133C93.9457 173.283 93.9174 160.852 93.7723 148.973C91.8398 136.17 90.8221 122.109 88.4373 109.398L88.3659 109.419L88.1566 107.984L67.797 106.721C67.797 106.721 66.9406 116.754 66.7372 120.097C65.7451 136.32 64.0853 166.373 62.876 184.981L72.7426 185.819C74.5203 167.576 77.2715 140.993 78.9636 121.828C80.9068 131.159 82.2286 140.82 83.9183 150.071C84.255 161.652 84.5408 173.758 84.509 185.303Z" fill="#494949"/>
<path d="M74.0039 79.3236C74.0039 79.3236 76.0731 78.2202 75.6112 72.553L79.8867 71.7559C79.8867 71.7559 79.405 76.8366 81.5692 78.4497L74.0039 79.3236Z" fill="#E98862"/>
<path d="M73.185 70.3557C73.481 72.0752 74.414 73.7032 75.922 74.2581C77.7124 74.9175 79.0384 74.9619 81.1026 74.9619C83.9192 74.9619 83.8261 72.0079 83.9053 69.0307C83.9856 66.0417 83.7482 62.8358 82.6349 61.7943C80.4137 59.7152 73.891 61.0318 73.0978 64.509C72.6875 66.3079 72.9032 68.7193 73.185 70.3557Z" fill="#E98862"/>
<path d="M85.415 63.5229C85.415 63.5229 86.5684 63.264 86.2526 62.107C86.0433 61.34 85.066 61.5104 85.066 61.5104C85.066 61.5104 85.9914 61.34 85.9914 60.5275C85.9914 60.0161 85.6002 59.1482 84.4202 59.6439C83.0356 60.2255 81.4564 60.151 80.2558 59.9478C79.5765 59.7983 78.8869 59.7004 78.193 59.655H78.1895C77.3919 59.6409 76.5967 59.7479 75.8307 59.9723C73.6844 60.6182 70.386 62.5616 71.1268 66.9409C71.927 71.6739 74.7932 73.7541 75.1876 74.0418C75.929 74.5838 80.4865 74.6936 80.938 74.2396C81.614 73.5598 81.9817 70.8267 81.8447 66.0652C83.7124 65.7691 84.9959 65.641 84.9959 65.641C84.9959 65.641 86.5481 65.6994 86.5481 64.5586C86.5481 63.4177 85.415 63.5229 85.415 63.5229Z" fill="#1C1C1C"/>
<path d="M83.2077 69.5973C83.2404 70.0328 83.1004 70.4636 82.8183 70.7956C82.5363 71.1276 82.135 71.3339 81.7022 71.3695C81.2694 71.405 80.8402 71.2669 80.5083 70.9853C80.1764 70.7037 79.9688 70.3015 79.9307 69.8664C79.9093 69.6494 79.9316 69.4302 79.9962 69.2219C80.0608 69.0137 80.1664 68.8206 80.3068 68.6543C80.4471 68.4879 80.6193 68.3517 80.8131 68.2537C81.0069 68.1556 81.2183 68.0978 81.4347 68.0837C82.6064 68.0449 83.1333 68.686 83.2077 69.5973Z" fill="#E98862"/>
<path d="M98.1335 87.8099L98.2579 87.8637L96.7012 88.1161L98.2293 91.0497C98.2293 91.0497 103.896 92.383 106.547 89.3835C106.614 89.307 106.657 89.2119 106.67 89.1105C106.683 89.0091 106.665 88.9062 106.619 88.8152C106.572 88.7242 106.5 88.6494 106.411 88.6004C106.322 88.5515 106.22 88.5307 106.119 88.5408C104.591 88.6969 101.866 88.8824 100.639 88.3955C101.178 88.129 101.894 87.721 101.782 87.4772C101.486 86.8372 98.9208 87.6823 98.1335 87.8099Z" fill="#E98862"/>
<path d="M83.9252 100.376C83.1742 100.376 82.4521 100.085 81.9092 99.5638L66.8511 85.0992L70.8814 80.8555L84.4529 93.8918L97.6733 87.2111L100.293 92.4546L85.2346 100.063C84.8285 100.269 84.38 100.376 83.9252 100.376Z" fill="#1D5EDD"/>
<path d="M161.424 37.8652H92.937V89.766H161.424V37.8652Z" fill="#00CEC8"/>
<path d="M120.485 77.8328L135.481 65.5697L120.485 53.3066V77.8328Z" fill="#FEFEFE"/>
<path d="M114.927 87.8099L115.052 87.8637L113.495 88.1161L115.023 91.0497C115.023 91.0497 120.69 92.383 123.341 89.3835C123.408 89.307 123.451 89.2119 123.464 89.1105C123.477 89.0091 123.459 88.9062 123.413 88.8152C123.366 88.7242 123.294 88.6494 123.205 88.6004C123.116 88.5515 123.014 88.5307 122.913 88.5408C121.385 88.6969 118.66 88.8824 117.433 88.3955C117.972 88.129 118.688 87.721 118.576 87.4772C118.28 86.8372 115.715 87.6823 114.927 87.8099Z" fill="#E98862"/>
<path d="M114.117 87.1444L97.7079 92.4867L89.0871 81.8454C88.5002 79.5403 86.9748 77.9656 83.5832 77.8195C82.5087 77.7732 77.2658 77.7656 73.4271 77.7656C70.8483 77.7656 68.7312 78.5615 67.5087 79.7909C63.2931 84.03 68.4673 91.2535 68.4673 96.9078C68.4673 102.562 65.9249 105.094 66.1122 107.996C66.4066 112.557 88.4394 111.479 89.5621 108.889C90.7179 106.217 88.372 104.571 88.4748 95.8331C88.5242 94.1773 88.6597 92.5253 88.8807 90.8837L94.4472 97.7528C94.8186 98.2114 95.3191 98.5463 95.8831 98.7138C96.4472 98.8812 97.0483 98.8733 97.6078 98.691L115.917 92.7289L114.117 87.1444Z" fill="#1D5EDD"/>
<path d="M276.145 167.437C274.807 166.996 273.433 167.492 272.12 168.496C273.85 164.101 274.565 160.131 271.606 159.952C269.536 159.827 267.95 161.424 266.745 163.695C266.321 159.703 265.228 156.725 262.779 157.712C260.091 158.796 259.682 162.51 260.089 166.397C258.905 164.412 257.63 163.305 256.472 164.469C253.016 167.945 261.498 177.738 261.498 177.738H263.605L264.807 179.05C264.564 179.568 264.43 179.876 264.43 179.876L265.957 183.001C265.957 183.001 281.698 169.265 276.145 167.437Z" fill="#00BBB6"/>
<path d="M272.368 190.001H260.446L258.45 176.004H274.364L272.368 190.001Z" fill="#666666"/>
<path d="M55.6369 190H58.3511V163.149H55.6369V190Z" fill="#F4D88A"/>
<path d="M57.8708 190H60.585V163.149H57.8708V190Z" fill="#F4D88A"/>
<path d="M21.8302 190H24.5444L24.5444 163.149H21.8302L21.8302 190Z" fill="#F4D88A"/>
<path d="M24.0641 190H26.7783L26.7783 163.149H24.0641L24.0641 190Z" fill="#F4D88A"/>
<path d="M48.1925 190H50.9067V163.149H48.1925V190Z" fill="#F4D88A"/>
<path d="M50.4259 190H53.1401V163.149H50.4259V190Z" fill="#F4D88A"/>
<path d="M14.3864 190H17.1006L17.1006 163.149H14.3864L14.3864 190Z" fill="#F4D88A"/>
<path d="M16.6203 190H19.3345L19.3345 163.149H16.6203L16.6203 190Z" fill="#F4D88A"/>
<path d="M50.8899 145.961H14.3867V163.792H50.8899V145.961Z" fill="#F4D88A"/>
<path d="M60.5843 145.961H24.0811V163.792H60.5843V145.961Z" fill="#F4D88A"/>
<g opacity="0.53">
<path d="M58.6206 148.496H26.0449V161.179H58.6206V148.496Z" fill="#FEFEFE"/>
</g>
<path d="M42.333 156.293C43.132 156.293 43.7797 155.641 43.7797 154.838C43.7797 154.034 43.132 153.383 42.333 153.383C41.534 153.383 40.8862 154.034 40.8862 154.838C40.8862 155.641 41.534 156.293 42.333 156.293Z" fill="#FEFEFE"/>
<path d="M42.2061 128.539C41.179 128.201 40.1248 128.581 39.1161 129.352C40.4446 125.978 40.993 122.931 38.7217 122.794C37.1326 122.698 35.9152 123.924 34.9903 125.667C34.6651 122.602 33.8259 120.316 31.9461 121.074C29.8825 121.906 29.5686 124.758 29.8814 127.741C28.9715 126.217 27.9934 125.367 27.1046 126.261C24.452 128.928 30.9631 136.447 30.9631 136.447H32.5801L33.5031 137.454C33.3158 137.851 33.2138 138.088 33.2138 138.088L34.386 140.487C34.386 140.487 46.47 129.942 42.2061 128.539Z" fill="#00BBB6"/>
<path d="M39.3076 145.859H30.1559L28.624 135.115H40.8398L39.3076 145.859Z" fill="#858585"/>
<rect x="239" y="74.4922" width="12.3509" height="32" rx="6.17544" transform="rotate(-58.1513 239 74.4922)" fill="#EDBC33"/>
<circle cx="94" cy="14" r="10" fill="#1D5EDD"/>
<path d="M26.1211 63.2005C28.2795 62.379 30.5178 64.202 30.1501 66.482L27.3922 83.5815C27.0245 85.8614 24.3265 86.8883 22.5359 85.4299L9.10621 74.4918C7.31559 73.0333 7.77523 70.1834 9.93357 69.3619L26.1211 63.2005Z" fill="#33D8D3"/>
</g>
<defs>
<clipPath id="clip0_4267_15202">
<rect width="285" height="190" fill="white"/>
</clipPath>
</defs>
</svg>
