<svg width="19" height="18" viewBox="0 0 19 18" fill="none" xmlns="http://www.w3.org/2000/svg">
<g id="Icon">
<path id="Vector" d="M7.25 3.375C7.25 2.77826 7.48705 2.20597 7.90901 1.78401C8.33097 1.36205 8.90326 1.125 9.5 1.125C10.0967 1.125 10.669 1.36205 11.091 1.78401C11.5129 2.20597 11.75 2.77826 11.75 3.375V14.625C11.75 15.2217 11.5129 15.794 11.091 16.216C10.669 16.6379 10.0967 16.875 9.5 16.875C8.90326 16.875 8.33097 16.6379 7.90901 16.216C7.48705 15.794 7.25 15.2217 7.25 14.625V3.375ZM1.625 10.125C1.625 9.52826 1.86205 8.95597 2.28401 8.53401C2.70597 8.11205 3.27826 7.875 3.875 7.875C4.47174 7.875 5.04403 8.11205 5.46599 8.53401C5.88795 8.95597 6.125 9.52826 6.125 10.125V14.625C6.125 15.2217 5.88795 15.794 5.46599 16.216C5.04403 16.6379 4.47174 16.875 3.875 16.875C3.27826 16.875 2.70597 16.6379 2.28401 16.216C1.86205 15.794 1.625 15.2217 1.625 14.625V10.125ZM12.875 7.875C12.875 7.27826 13.1121 6.70597 13.534 6.28401C13.956 5.86205 14.5283 5.625 15.125 5.625C15.7217 5.625 16.294 5.86205 16.716 6.28401C17.1379 6.70597 17.375 7.27826 17.375 7.875V14.625C17.375 15.2217 17.1379 15.794 16.716 16.216C16.294 16.6379 15.7217 16.875 15.125 16.875C14.5283 16.875 13.956 16.6379 13.534 16.216C13.1121 15.794 12.875 15.2217 12.875 14.625V7.875Z" fill="#E8EFFC"/>
</g>
</svg>
