<svg width="32" height="32" viewBox="0 0 32 32" fill="none" xmlns="http://www.w3.org/2000/svg">
<g id="Icon">
<path id="Vector" d="M12.0003 23.9993H19.3337C19.7114 23.9993 20.0617 23.9047 20.3843 23.7154C20.707 23.526 20.9345 23.2651 21.067 22.9327L23.867 16.3993C23.9114 16.2882 23.9448 16.1771 23.967 16.066C23.9892 15.9549 24.0003 15.8438 24.0003 15.7327V14.666C24.0003 14.2882 23.8723 13.9713 23.6163 13.7153C23.3603 13.4593 23.0439 13.3318 22.667 13.3327H16.5337L17.3337 8.79935C17.3781 8.57713 17.367 8.36602 17.3003 8.16602C17.2337 7.96602 17.1225 7.78824 16.967 7.63268L16.0003 6.66602L9.86699 13.3327C9.68921 13.5105 9.55588 13.7105 9.46699 13.9327C9.3781 14.1549 9.33366 14.3993 9.33366 14.666V21.3327C9.33366 22.066 9.59499 22.694 10.1177 23.2167C10.6403 23.7393 11.2679 24.0002 12.0003 23.9993ZM16.0003 29.3327C14.1559 29.3327 12.4225 28.9825 10.8003 28.282C9.1781 27.5816 7.76699 26.6318 6.56699 25.4327C5.36699 24.2327 4.41721 22.8216 3.71766 21.1993C3.0181 19.5771 2.66788 17.8438 2.66699 15.9993C2.66699 14.1549 3.01721 12.4216 3.71766 10.7993C4.4181 9.17713 5.36788 7.76602 6.56699 6.56602C7.76699 5.36602 9.1781 4.41624 10.8003 3.71668C12.4225 3.01713 14.1559 2.6669 16.0003 2.66602C17.8448 2.66602 19.5781 3.01624 21.2003 3.71668C22.8225 4.41713 24.2337 5.3669 25.4337 6.56602C26.6337 7.76602 27.5839 9.17713 28.2843 10.7993C28.9848 12.4216 29.3345 14.1549 29.3337 15.9993C29.3337 17.8438 28.9834 19.5771 28.283 21.1993C27.5825 22.8216 26.6328 24.2327 25.4337 25.4327C24.2337 26.6327 22.8225 27.5829 21.2003 28.2833C19.5781 28.9838 17.8448 29.3336 16.0003 29.3327Z" fill="#00CEC8"/>
</g>
</svg>
