<svg width="28" height="28" viewBox="0 0 28 28" fill="none" xmlns="http://www.w3.org/2000/svg">
<g id="&#240;&#159;&#166;&#134; emoji &#34;loudly crying face&#34;">
<g id="Group">
<path id="Vector" d="M7.5536 27.0638C10.6219 27.0638 13.1092 26.7653 13.1092 26.3971C13.1092 26.0289 10.6219 25.7305 7.5536 25.7305C4.48535 25.7305 1.99805 26.0289 1.99805 26.3971C1.99805 26.7653 4.48535 27.0638 7.5536 27.0638Z" fill="#65B1EF"/>
<path id="Vector_2" d="M19.3301 27.3305C23.7484 27.3305 27.3301 26.9723 27.3301 26.5305C27.3301 26.0886 23.7484 25.7305 19.3301 25.7305C14.9118 25.7305 11.3301 26.0886 11.3301 26.5305C11.3301 26.9723 14.9118 27.3305 19.3301 27.3305Z" fill="#65B1EF"/>
</g>
<path id="Vector_3" d="M13.9993 27.3327C21.3631 27.3327 27.3327 21.3631 27.3327 13.9993C27.3327 6.63555 21.3631 0.666016 13.9993 0.666016C6.63555 0.666016 0.666016 6.63555 0.666016 13.9993C0.666016 21.3631 6.63555 27.3327 13.9993 27.3327Z" fill="#FFDD67"/>
<path id="Vector_4" d="M19.6436 20.2214C19.0213 18.6214 17.5102 17.5547 13.9991 17.5547C10.4436 17.5547 8.97689 18.6214 8.35467 20.2214C8.04356 21.0658 8.48801 22.4436 8.48801 22.4436C9.06578 24.1769 8.97689 24.6658 13.9991 24.6658C19.0213 24.6658 18.9325 24.1769 19.5102 22.4436C19.5102 22.4436 19.9991 21.0658 19.6436 20.2214Z" fill="#664E27"/>
<path id="Vector_5" d="M17.998 19.7767C18.0425 19.6434 17.998 19.51 17.9092 19.4211C17.9092 19.4211 17.0203 18.4434 13.998 18.4434C10.9758 18.4434 10.0869 19.4211 10.0869 19.4211C9.99805 19.4656 9.99805 19.6434 9.99805 19.7767L10.0869 20.0434C10.1314 20.1767 10.2203 20.2656 10.3092 20.2656H17.6869C17.7758 20.2656 17.9092 20.1767 17.9092 20.0434L17.998 19.7767Z" fill="white"/>
<path id="Vector_6" d="M19.556 26.6663H22.5782C26.2227 22.2663 21.9115 17.7774 22.9782 13.4219C21.956 13.4219 20.9338 14.533 19.956 14.533C18.5338 18.7552 23.2004 22.2663 19.556 26.6663ZM8.44488 26.6663H5.42266C1.77821 22.2663 6.08932 17.7774 5.02266 13.4219C6.04488 13.4219 7.0671 14.533 8.04488 14.533C9.4671 18.7552 4.80043 22.2663 8.44488 26.6663Z" fill="#65B1EF"/>
<path id="Vector_7" d="M17.8665 7.91043C19.1998 9.24376 21.0665 9.91043 22.9332 9.73265C23.1998 9.68821 23.3332 10.666 23.022 10.7104C20.8443 10.8882 18.7109 10.1327 17.1998 8.5771C16.9332 8.35487 17.6887 7.73265 17.8665 7.91043ZM5.11094 9.73265C6.9776 9.91043 8.84427 9.24376 10.1776 7.91043C10.3554 7.73265 11.1109 8.35487 10.8887 8.5771C9.3776 10.1327 7.19983 10.8882 5.06649 10.7104C4.66649 10.7104 4.84427 9.73265 5.11094 9.73265Z" fill="#917524"/>
<path id="Vector_8" d="M15.7339 13.2452C17.6005 16.8008 21.3783 16.8008 23.245 13.2452C23.3339 13.0674 23.1116 12.9786 22.8005 12.8008C20.9339 14.2674 17.8672 14.1341 16.1783 12.8008C15.9116 12.9786 15.645 13.0674 15.7339 13.2452ZM4.75608 13.2452C6.62275 16.8008 10.4005 16.8008 12.2672 13.2452C12.3561 13.0674 12.1339 12.9786 11.8227 12.8008C9.95608 14.2674 6.88941 14.1341 5.20052 12.8008C4.88941 12.9786 4.66719 13.0674 4.75608 13.2452Z" fill="#664E27"/>
</g>
</svg>
