<svg width="32" height="32" viewBox="0 0 32 32" fill="none" xmlns="http://www.w3.org/2000/svg">
<g id="Group">
<path id="Vector" d="M31.9275 1.37161C32.0003 1.18988 32.0181 0.990804 31.9788 0.799051C31.9394 0.607299 31.8447 0.431307 31.7063 0.292894C31.5679 0.154481 31.3919 0.0597336 31.2001 0.0203987C31.0084 -0.0189362 30.8093 -0.00112919 30.6275 0.0716121L1.53355 11.7096H1.53155L0.627546 12.0696C0.456327 12.1379 0.307317 12.2522 0.196978 12.3999C0.086638 12.5475 0.0192624 12.7228 0.00229331 12.9064C-0.0146758 13.0899 0.0194221 13.2746 0.10082 13.44C0.182219 13.6054 0.307749 13.7451 0.463546 13.8436L1.28355 14.3636L1.28555 14.3676L11.2755 20.7236L14.4555 25.7196C15.9995 27.9996 15.9995 25.9996 15.9995 24.9996C15.9993 23.7288 16.2682 22.4723 16.7885 21.3129C17.3089 20.1535 18.0688 19.1174 19.0184 18.2729C19.968 17.4283 21.0857 16.7944 22.2979 16.413C23.5102 16.0315 24.7894 15.9111 26.0515 16.0596L31.9275 1.37161ZM28.2615 5.15161L13.2735 20.1396L12.8435 19.4636C12.7648 19.3396 12.6596 19.2344 12.5355 19.1556L11.8595 18.7256L26.8475 3.73761L29.2035 2.79561L28.2635 5.15161H28.2615Z" fill="#E8AB00"/>
<path id="Vector_2" d="M32 25C32 26.8565 31.2625 28.637 29.9497 29.9497C28.637 31.2625 26.8565 32 25 32C23.1435 32 21.363 31.2625 20.0503 29.9497C18.7375 28.637 18 26.8565 18 25C18 23.1435 18.7375 21.363 20.0503 20.0503C21.363 18.7375 23.1435 18 25 18C26.8565 18 28.637 18.7375 29.9497 20.0503C31.2625 21.363 32 23.1435 32 25ZM25 21C24.7348 21 24.4804 21.1054 24.2929 21.2929C24.1054 21.4804 24 21.7348 24 22V24H22C21.7348 24 21.4804 24.1054 21.2929 24.2929C21.1054 24.4804 21 24.7348 21 25C21 25.2652 21.1054 25.5196 21.2929 25.7071C21.4804 25.8946 21.7348 26 22 26H24V28C24 28.2652 24.1054 28.5196 24.2929 28.7071C24.4804 28.8946 24.7348 29 25 29C25.2652 29 25.5196 28.8946 25.7071 28.7071C25.8946 28.5196 26 28.2652 26 28V26H28C28.2652 26 28.5196 25.8946 28.7071 25.7071C28.8946 25.5196 29 25.2652 29 25C29 24.7348 28.8946 24.4804 28.7071 24.2929C28.5196 24.1054 28.2652 24 28 24H26V22C26 21.7348 25.8946 21.4804 25.7071 21.2929C25.5196 21.1054 25.2652 21 25 21Z" fill="#E8AB00"/>
</g>
</svg>
