<svg width="141" height="49" viewBox="0 0 141 49" fill="none" xmlns="http://www.w3.org/2000/svg">
<g id="Group 616">
<path id="Vector 5" d="M1 48.1225C2.661 41.2655 6.34114 4.00009 23.5 5.55915C44.9486 7.50797 56.5 51.8081 65 28.0001C74.5053 1.37619 93.2939 -6.44492 103.693 11.5277C107.187 17.5652 111.798 25.4682 116.481 31.5946L135.967 28.8058C136.428 26.0634 136.778 22.8027 137 18.9644L140.741 14.6225V28.1225L135.967 28.8058C132.831 47.4331 124.55 42.1513 116.481 31.5946L1 48.1225Z" fill="url(#paint0_linear_608_72990)"/>
<path id="Vector 4" d="M1 48.1224C2.661 41.2654 7.84114 4.06336 25 5.62242C46.4486 7.57125 54.884 51.3233 65.5 25.1224C76.116 -1.07847 93.2939 -6.44498 103.693 11.5277C114.093 29.5003 135.9 65.1606 138.5 20.1211" stroke="#00CEC8"/>
</g>
<defs>
<linearGradient id="paint0_linear_608_72990" x1="71" y1="-106.875" x2="104.504" y2="37.1242" gradientUnits="userSpaceOnUse">
<stop stop-color="#00CEC8"/>
<stop offset="0.925925" stop-color="#00CEC8" stop-opacity="0"/>
</linearGradient>
</defs>
</svg>
