<svg width="6" height="18" viewBox="0 0 6 18" fill="none" xmlns="http://www.w3.org/2000/svg">
<g id="Group">
<path id="Vector" d="M3.0001 17.3996C4.32558 17.3996 5.4001 16.3251 5.4001 14.9996C5.4001 13.6741 4.32558 12.5996 3.0001 12.5996C1.67461 12.5996 0.600098 13.6741 0.600098 14.9996C0.600098 16.3251 1.67461 17.3996 3.0001 17.3996Z" fill="#1D5EDD"/>
<path id="Vector_2" d="M3.0001 11.3996C4.32558 11.3996 5.4001 10.3251 5.4001 8.99961C5.4001 7.67413 4.32558 6.59961 3.0001 6.59961C1.67461 6.59961 0.600098 7.67413 0.600098 8.99961C0.600098 10.3251 1.67461 11.3996 3.0001 11.3996Z" fill="#1D5EDD"/>
<path id="Vector_3" d="M3.0001 5.39961C4.32558 5.39961 5.4001 4.32509 5.4001 2.99961C5.4001 1.67413 4.32558 0.599609 3.0001 0.599609C1.67461 0.599609 0.600098 1.67413 0.600098 2.99961C0.600098 4.32509 1.67461 5.39961 3.0001 5.39961Z" fill="#1D5EDD"/>
</g>
</svg>
