<svg width="13" height="13" viewBox="0 0 13 13" fill="none" xmlns="http://www.w3.org/2000/svg">
<g id="Group">
<path id="Vector" d="M9 2.16995C9.75413 2.60537 10.3815 3.23021 10.8199 3.9826C11.2583 4.73498 11.4927 5.58883 11.4997 6.45962C11.5067 7.3304 11.2862 8.18792 10.86 8.94729C10.4338 9.70667 9.81662 10.3416 9.06962 10.7891C8.32262 11.2367 7.47168 11.4814 6.60105 11.499C5.73042 11.5166 4.87028 11.3065 4.10578 10.8896C3.34128 10.4726 2.69894 9.86321 2.24233 9.1217C1.78573 8.3802 1.5307 7.5323 1.5025 6.66195L1.5 6.49995L1.5025 6.33795C1.5305 5.47444 1.78177 4.63293 2.23182 3.89544C2.68187 3.15796 3.31533 2.54967 4.07045 2.12989C4.82557 1.7101 5.67657 1.49314 6.5405 1.50017C7.40443 1.50719 8.2518 1.73795 9 2.16995ZM6.5 3.49995C6.37753 3.49996 6.25933 3.54492 6.16781 3.6263C6.0763 3.70768 6.01783 3.81982 6.0035 3.94145L6 3.99995V6.49995L6.0045 6.56545C6.0159 6.65219 6.04986 6.73443 6.103 6.80395L6.1465 6.85395L7.6465 8.35395L7.6935 8.39495C7.78119 8.46298 7.88902 8.4999 8 8.4999C8.11098 8.4999 8.21881 8.46298 8.3065 8.39495L8.3535 8.35345L8.395 8.30645C8.46303 8.21876 8.49996 8.11093 8.49996 7.99995C8.49996 7.88896 8.46303 7.78113 8.395 7.69345L8.3535 7.64645L7 6.29245V3.99995L6.9965 3.94145C6.98217 3.81982 6.9237 3.70768 6.83219 3.6263C6.74067 3.54492 6.62247 3.49996 6.5 3.49995Z" fill="#97B5EF"/>
</g>
</svg>
