<svg width="24" height="24" viewBox="0 0 24 24" fill="none" xmlns="http://www.w3.org/2000/svg">
<g id="Icon">
<path id="Union" fill-rule="evenodd" clip-rule="evenodd" d="M7.24997 6.88166L7.24997 5.46166C7.25011 5.04268 7.40056 4.63766 7.67398 4.3202C7.9474 4.00274 8.32564 3.79391 8.73997 3.73166L9.95997 3.54866C11.3124 3.34576 12.6875 3.34576 14.04 3.54866L15.26 3.73166C15.6745 3.79393 16.0528 4.00291 16.3263 4.32058C16.5997 4.63825 16.7501 5.04351 16.75 5.46266V6.88266L18.444 7.01966C19.0259 7.06649 19.5754 7.30711 20.0045 7.70304C20.4336 8.09896 20.7176 8.62733 20.811 9.20366C20.8524 9.46143 20.8901 9.71979 20.924 9.97866C20.9321 10.0412 20.9203 10.1047 20.8901 10.16C20.8599 10.2153 20.813 10.2597 20.756 10.2867L20.679 10.3227C15.251 12.8927 8.74997 12.8927 3.32097 10.3227L3.24397 10.2867C3.1868 10.2598 3.13963 10.2156 3.10925 10.1602C3.07888 10.1049 3.06687 10.0413 3.07497 9.97866C3.10897 9.71966 3.14797 9.46166 3.18897 9.20366C3.28238 8.62733 3.56634 8.09896 3.99544 7.70304C4.42454 7.30711 4.974 7.06649 5.55597 7.01966L7.24997 6.88166ZM10.183 5.03166C11.3876 4.85099 12.6124 4.85099 13.817 5.03166L15.037 5.21466C15.0962 5.22352 15.1502 5.25331 15.1893 5.29864C15.2284 5.34396 15.2499 5.40181 15.25 5.46166V6.77666C13.0851 6.65264 10.9149 6.65264 8.74997 6.77666V5.46166C8.75003 5.40181 8.77156 5.34396 8.81064 5.29864C8.84973 5.25331 8.90378 5.22352 8.96297 5.21466L10.183 5.03166ZM21.0894 11.9793C21.1062 12.007 21.116 12.0384 21.118 12.0707V12.0717C21.221 13.9827 21.117 15.9027 20.811 17.7977C20.7178 18.3742 20.4339 18.9028 20.0048 19.2989C19.5757 19.695 19.0261 19.9358 18.444 19.9827L16.572 20.1337C13.528 20.3787 10.471 20.3787 7.42797 20.1337L5.55597 19.9817C4.974 19.9349 4.42454 19.6942 3.99544 19.2983C3.56634 18.9024 3.28238 18.374 3.18897 17.7977C2.88269 15.9051 2.77977 13.9852 2.88197 12.0707C2.88395 12.0384 2.89376 12.007 2.91054 11.9793C2.92733 11.9516 2.95059 11.9284 2.97834 11.9117C3.00608 11.8949 3.03746 11.8852 3.0698 11.8833C3.10213 11.8814 3.13445 11.8873 3.16397 11.9007C8.73497 14.3677 15.265 14.3677 20.836 11.9007C20.8655 11.8873 20.8978 11.8814 20.9301 11.8833C20.9625 11.8852 20.9939 11.8949 21.0216 11.9117C21.0493 11.9284 21.0726 11.9516 21.0894 11.9793Z" fill="#E8EFFC"/>
</g>
</svg>
