<svg width="28" height="28" viewBox="0 0 28 28" fill="none" xmlns="http://www.w3.org/2000/svg">
<g id="&#240;&#159;&#166;&#134; emoji &#34;face with open mouth&#34;">
<path id="Vector" d="M13.9993 27.3327C21.3631 27.3327 27.3327 21.3631 27.3327 13.9993C27.3327 6.63555 21.3631 0.666016 13.9993 0.666016C6.63555 0.666016 0.666016 6.63555 0.666016 13.9993C0.666016 21.3631 6.63555 27.3327 13.9993 27.3327Z" fill="#FFDD67"/>
<g id="Group">
<path id="Vector_2" d="M13.9998 22.9312C15.718 22.9312 17.1109 21.5383 17.1109 19.8201C17.1109 18.1019 15.718 16.709 13.9998 16.709C12.2816 16.709 10.8887 18.1019 10.8887 19.8201C10.8887 21.5383 12.2816 22.9312 13.9998 22.9312Z" fill="#664E27"/>
<path id="Vector_3" d="M8.75586 12.8887C9.86043 12.8887 10.7559 11.9932 10.7559 10.8887C10.7559 9.7841 9.86043 8.88867 8.75586 8.88867C7.65129 8.88867 6.75586 9.7841 6.75586 10.8887C6.75586 11.9932 7.65129 12.8887 8.75586 12.8887Z" fill="#664E27"/>
<path id="Vector_4" d="M18.7559 12.8887C19.8604 12.8887 20.7559 11.9932 20.7559 10.8887C20.7559 9.7841 19.8604 8.88867 18.7559 8.88867C17.6513 8.88867 16.7559 9.7841 16.7559 10.8887C16.7559 11.9932 17.6513 12.8887 18.7559 12.8887Z" fill="#664E27"/>
</g>
</g>
</svg>
