<svg width="24" height="24" viewBox="0 0 24 24" fill="none" xmlns="http://www.w3.org/2000/svg">
<g id="Icon">
<path id="Union" fill-rule="evenodd" clip-rule="evenodd" d="M7.24997 6.88117V5.46117C7.25011 5.04219 7.40056 4.63717 7.67398 4.31971C7.9474 4.00225 8.32564 3.79342 8.73997 3.73117L9.95997 3.54817C11.3124 3.34527 12.6875 3.34527 14.04 3.54817L15.26 3.73117C15.6745 3.79344 16.0528 4.00242 16.3263 4.32009C16.5997 4.63776 16.7501 5.04302 16.75 5.46217V6.88217L18.444 7.01917C19.0259 7.06601 19.5754 7.30662 20.0045 7.70255C20.4336 8.09847 20.7176 8.62684 20.811 9.20317C20.8524 9.46094 20.8901 9.7193 20.924 9.97817C20.9321 10.0407 20.9203 10.1042 20.8901 10.1595C20.8599 10.2149 20.813 10.2592 20.756 10.2862L20.679 10.3222C15.251 12.8922 8.74997 12.8922 3.32097 10.3222L3.24397 10.2862C3.1868 10.2594 3.13963 10.2151 3.10925 10.1597C3.07888 10.1044 3.06687 10.0408 3.07497 9.97817C3.10897 9.71917 3.14797 9.46117 3.18897 9.20317C3.28238 8.62684 3.56634 8.09847 3.99544 7.70255C4.42454 7.30662 4.974 7.06601 5.55597 7.01917L7.24997 6.88117ZM10.183 5.03117C11.3876 4.8505 12.6124 4.8505 13.817 5.03117L15.037 5.21417C15.0962 5.22303 15.1502 5.25283 15.1893 5.29815C15.2284 5.34348 15.2499 5.40132 15.25 5.46117V6.77617C13.0851 6.65215 10.9149 6.65215 8.74997 6.77617V5.46117C8.75003 5.40132 8.77156 5.34348 8.81064 5.29815C8.84973 5.25283 8.90378 5.22303 8.96297 5.21417L10.183 5.03117ZM21.0894 11.9788C21.1062 12.0065 21.116 12.0379 21.118 12.0702V12.0712C21.221 13.9822 21.117 15.9022 20.811 17.7972C20.7178 18.3737 20.4339 18.9023 20.0048 19.2984C19.5757 19.6946 19.0261 19.9353 18.444 19.9822L16.572 20.1332C13.528 20.3782 10.471 20.3782 7.42797 20.1332L5.55597 19.9812C4.974 19.9344 4.42454 19.6937 3.99544 19.2978C3.56634 18.9019 3.28238 18.3735 3.18897 17.7972C2.88269 15.9046 2.77977 13.9847 2.88197 12.0702C2.88395 12.0379 2.89376 12.0065 2.91054 11.9788C2.92733 11.9511 2.95059 11.9279 2.97834 11.9112C3.00608 11.8944 3.03746 11.8847 3.0698 11.8828C3.10213 11.8809 3.13445 11.8869 3.16397 11.9002C8.73497 14.3672 15.265 14.3672 20.836 11.9002C20.8655 11.8869 20.8978 11.8809 20.9301 11.8828C20.9625 11.8847 20.9939 11.8944 21.0216 11.9112C21.0493 11.9279 21.0726 11.9511 21.0894 11.9788Z" fill="#E8AB00"/>
</g>
</svg>
